<svg width="502" height="81" viewBox="0 0 502 81" fill="none" xmlns="http://www.w3.org/2000/svg">
<path d="M0.466537 54.406C0.466537 52.8383 1.08112 51.4685 2.3207 50.3018C3.55508 49.1248 5.05508 48.531 6.8207 48.531L15.154 49.031C17.8884 49.031 20.2009 47.9581 22.0915 45.8018C23.9926 43.6352 24.9457 40.9581 24.9457 37.7602C24.9457 35.1508 23.9457 32.9477 21.9457 31.156C19.9561 29.3643 17.529 28.4685 14.654 28.4685C12.8884 28.4685 11.3415 28.8331 10.0082 29.5518C8.67487 30.2602 7.77904 31.2081 7.3207 32.3852C7.12279 32.9685 6.72696 33.2602 6.1332 33.2602C5.28425 33.2602 4.86237 32.8018 4.86237 31.8852V25.031H26.404C29.4717 25.031 32.1176 26.2758 34.3415 28.7602C36.5603 31.2341 37.6749 34.2341 37.6749 37.7602C37.6749 41.8018 35.9353 45.2602 32.4665 48.1352C29.0082 51.0102 24.8676 52.4477 20.0499 52.4477C22.4665 53.755 23.8936 55.7966 24.3415 58.5727C24.7999 61.3539 25.8624 63.4789 27.529 64.9477C29.1957 66.406 31.102 67.1352 33.2582 67.1352C36.0603 67.1352 38.477 65.406 40.5082 61.9477C42.5342 58.4893 43.5499 54.3435 43.5499 49.5102C43.5499 44.4841 42.8936 41.2185 41.5915 39.7185L53.3415 37.281C54.9665 39.4893 55.779 42.5883 55.779 46.5727H64.1124V27.9685H61.1749C60.1853 27.9685 59.6957 27.4841 59.6957 26.5102C59.6957 25.5258 60.1853 25.031 61.1749 25.031H79.279C80.2634 25.031 80.7582 25.5258 80.7582 26.5102C80.7582 27.4841 80.2634 27.9685 79.279 27.9685H75.8624V69.0935C75.8624 71.0518 76.3103 72.781 77.2165 74.281C78.1332 75.781 79.3103 76.6612 80.7582 76.9268C80.4249 76.5935 80.2582 76.1352 80.2582 75.5518C80.2582 74.7706 80.6332 74.0779 81.3832 73.4685C82.1332 72.8435 83.0603 72.531 84.1749 72.531C85.2165 72.531 86.1228 72.9581 86.904 73.8018C87.6957 74.6456 88.0915 75.6873 88.0915 76.9268C88.0915 77.9685 87.6645 78.8748 86.8207 79.656C85.9717 80.4477 84.9301 80.8435 83.6957 80.8435C82.0551 80.8435 80.3259 80.2498 78.5082 79.0727C74.1853 76.3331 71.3467 74.9685 69.9874 74.9685C66.4561 74.9685 63.5186 75.781 61.1749 77.406L59.2165 74.4685C60.6436 73.9581 61.8207 73.1143 62.7374 71.9477C63.654 70.7706 64.1124 69.4893 64.1124 68.1143V50.0102H55.779C55.2634 55.6768 52.5707 60.4425 47.6957 64.3018C42.8311 68.1508 37.0395 70.0727 30.3207 70.0727C25.6228 70.0727 21.5134 68.8643 17.9874 66.4477C14.4561 64.031 12.3676 60.9998 11.7165 57.3435C11.4509 55.6508 10.8103 54.2498 9.79987 53.1352C8.79987 52.0258 7.64362 51.4685 6.34154 51.4685C5.03425 51.5935 4.3832 52.0883 4.3832 52.9477C5.09154 52.9477 5.67487 53.1768 6.1332 53.6352C6.59154 54.0831 6.8207 54.6664 6.8207 55.3852C6.8207 56.2341 6.53945 56.9373 5.98737 57.4893C5.43008 58.0466 4.72695 58.3227 3.8832 58.3227C2.90925 58.3227 2.09675 57.9685 1.4457 57.2602C0.789453 56.5414 0.466537 55.5883 0.466537 54.406Z" fill="url(#paint0_linear_201_43)"/>
<path d="M92.9799 25.031H110.605C111.589 25.031 112.084 25.5258 112.084 26.5102C112.084 27.4841 111.589 27.9685 110.605 27.9685H107.667V69.0935C107.667 71.0518 108.126 72.781 109.042 74.281C109.959 75.781 111.131 76.6612 112.563 76.9268C112.24 76.5935 112.084 76.1352 112.084 75.5518C112.084 74.7706 112.459 74.0779 113.209 73.4685C113.959 72.8435 114.886 72.531 116.001 72.531C117.042 72.531 117.949 72.9581 118.73 73.8018C119.522 74.6456 119.917 75.6873 119.917 76.9268C119.917 77.9685 119.49 78.8748 118.647 79.656C117.798 80.4477 116.751 80.8435 115.501 80.8435C113.876 80.8435 112.147 80.2498 110.313 79.0727C106.006 76.3331 103.167 74.9685 101.792 74.9685C98.2768 74.9685 95.3393 75.781 92.9799 77.406L91.0216 74.4685C92.4643 73.9581 93.6362 73.1143 94.5424 71.9477C95.4591 70.7706 95.9174 69.4893 95.9174 68.1143V27.9685H92.9799C92.006 27.9685 91.5216 27.4841 91.5216 26.5102C91.5216 25.5258 92.006 25.031 92.9799 25.031Z" fill="url(#paint1_linear_201_43)"/>
<path d="M120.493 34.8226C120.493 31.8226 122.389 29.2809 126.181 27.1976C129.972 25.1038 134.603 24.0518 140.077 24.0518C144.394 24.0518 148.004 24.8018 150.91 26.3018C153.811 27.8018 155.264 29.6663 155.264 31.8851C155.264 33.1247 154.837 34.1716 153.993 35.0309C153.144 35.8799 152.097 36.3018 150.847 36.3018C149.733 36.3018 148.806 35.9268 148.056 35.1768C147.306 34.4163 146.931 33.4841 146.931 32.3851C146.931 31.5934 147.254 30.8747 147.91 30.2184C148.561 29.5674 149.379 29.1455 150.368 28.9476C149.577 28.2965 146.639 27.9684 141.556 27.9684C139.066 27.9684 136.978 28.6247 135.285 29.9268C133.587 31.2341 132.743 32.8643 132.743 34.8226C132.743 37.1716 133.733 39.1507 135.722 40.7601C137.722 42.3591 140.15 43.1559 143.014 43.1559C149.347 43.1559 156.04 41.5257 163.097 38.2601L165.056 43.1559L145.472 48.5309C150.233 48.5309 154.275 49.6091 157.597 51.7601C160.931 53.9163 162.597 56.5934 162.597 59.8018C162.597 63.8434 160.41 67.3018 156.035 70.1768C151.67 73.0413 146.353 74.4684 140.077 74.4684C134.993 74.4684 130.702 73.3955 127.202 71.2393C123.712 69.0882 121.972 66.4163 121.972 63.2184C121.972 62.1091 122.347 61.1768 123.097 60.4268C123.847 59.6768 124.775 59.3018 125.889 59.3018C126.998 59.3018 127.931 59.6768 128.681 60.4268C129.431 61.1768 129.806 62.1091 129.806 63.2184C129.806 63.9424 129.54 64.583 129.014 65.1351C128.498 65.6924 127.785 66.0309 126.868 66.1559C127.978 67.5309 129.54 68.6143 131.556 69.4059C133.582 70.1872 135.769 70.5726 138.118 70.5726C141.712 70.5726 144.733 69.3799 147.181 66.9893C149.623 64.6038 150.847 61.7132 150.847 58.3226C150.847 56.1716 149.978 54.333 148.243 52.8018C146.519 51.2601 144.452 50.4893 142.035 50.4893L122.452 56.3643L120.993 51.4684L142.535 45.5934C136.462 45.5934 131.269 44.5518 126.952 42.4684C122.644 40.3747 120.493 37.8226 120.493 34.8226Z" fill="url(#paint2_linear_201_43)"/>
<path d="M176.402 25.031H194.027C195.011 25.031 195.506 25.5258 195.506 26.5102C195.506 27.4841 195.011 27.9685 194.027 27.9685H191.089V69.0935C191.089 71.0518 191.548 72.781 192.464 74.281C193.381 75.781 194.553 76.6612 195.985 76.9268C195.662 76.5935 195.506 76.1352 195.506 75.5518C195.506 74.7706 195.881 74.0779 196.631 73.4685C197.381 72.8435 198.308 72.531 199.423 72.531C200.464 72.531 201.371 72.9581 202.152 73.8018C202.943 74.6456 203.339 75.6873 203.339 76.9268C203.339 77.9685 202.912 78.8748 202.068 79.656C201.219 80.4477 200.173 80.8435 198.923 80.8435C197.298 80.8435 195.568 80.2498 193.735 79.0727C189.428 76.3331 186.589 74.9685 185.214 74.9685C181.699 74.9685 178.761 75.781 176.402 77.406L174.443 74.4685C175.886 73.9581 177.058 73.1143 177.964 71.9477C178.881 70.7706 179.339 69.4893 179.339 68.1143V27.9685H176.402C175.428 27.9685 174.943 27.4841 174.943 26.5102C174.943 25.5258 175.428 25.031 176.402 25.031Z" fill="url(#paint3_linear_201_43)"/>
<path d="M217.915 32.8642C217.915 34.4371 218.436 35.8121 219.478 36.9892C220.53 38.1558 221.811 38.7392 223.311 38.7392C225.795 38.7392 227.915 38.484 229.665 37.9683C231.426 37.4423 232.571 36.7183 233.103 35.8017C231.988 35.8017 231.061 35.5725 230.311 35.1142C229.561 34.6558 229.186 34.0725 229.186 33.3642C229.186 32.6454 229.509 32.0517 230.165 31.5933C230.816 31.135 231.629 30.9058 232.603 30.9058C233.712 30.7808 234.691 31.2756 235.54 32.385C235.025 31.0829 234.03 30.0204 232.561 29.1975C231.087 28.3798 229.311 27.9683 227.228 27.9683C224.613 27.9683 222.405 28.4423 220.603 29.385C218.811 30.3329 217.915 31.4892 217.915 32.8642ZM204.707 33.8433C204.707 30.8433 206.691 28.3017 210.665 26.2183C214.65 24.1246 219.519 23.0725 225.269 23.0725C231.795 23.0725 237.342 24.4163 241.915 27.0933C246.483 29.76 248.769 32.9892 248.769 36.7808C248.769 41.3538 246.384 45.2704 241.623 48.5308C236.858 51.7965 231.082 53.4267 224.29 53.4267C226.316 54.4683 227.946 56.7183 229.186 60.1767C230.42 63.635 231.754 66.4006 233.186 68.4683C234.629 70.5256 235.905 71.5517 237.019 71.5517C238.196 71.5517 239.311 71.0308 240.353 69.9892C241.394 68.9371 242.238 67.4996 242.894 65.6767C243.087 65.1506 243.478 64.885 244.061 64.885C244.587 64.885 244.853 65.1506 244.853 65.6767V73.9892H233.103C229.571 73.9892 226.29 72.7808 223.248 70.3642C220.217 67.9475 217.957 64.7548 216.457 60.7808C215.415 57.9058 214.217 55.635 212.873 53.9683C211.54 52.3017 210.28 51.4683 209.103 51.4683C207.353 51.4683 206.373 52.1246 206.165 53.4267C207.15 53.4267 207.967 53.6558 208.623 54.1142C209.275 54.5725 209.603 55.1663 209.603 55.885C209.603 56.734 209.321 57.4371 208.769 57.9892C208.212 58.5465 207.509 58.8225 206.665 58.8225C205.551 58.8225 204.623 58.4475 203.873 57.6975C203.123 56.9371 202.748 56.0048 202.748 54.9058C202.748 52.9475 203.4 51.3173 204.707 50.01C206.009 48.7079 207.644 48.0517 209.603 48.0517C210.712 48.0517 212.832 48.4788 215.957 49.3225C217.665 49.7808 218.967 50.01 219.873 50.01C224.384 50.01 228.207 48.6454 231.332 45.9058C234.467 43.1558 236.04 39.7913 236.04 35.8017C235.259 37.9579 233.509 39.7183 230.79 41.0933C228.082 42.4683 224.936 43.1558 221.353 43.1558C216.78 43.1558 212.863 42.2392 209.603 40.4058C206.337 38.5725 204.707 36.385 204.707 33.8433ZM252.186 25.0308H269.811C270.795 25.0308 271.29 25.5256 271.29 26.51C271.29 27.484 270.795 27.9683 269.811 27.9683H266.873V69.0933C266.873 71.0517 267.332 72.7808 268.248 74.2808C269.165 75.7808 270.337 76.6611 271.769 76.9267C271.446 76.5933 271.29 76.135 271.29 75.5517C271.29 74.7704 271.665 74.0777 272.415 73.4683C273.165 72.8433 274.092 72.5308 275.207 72.5308C276.248 72.5308 277.155 72.9579 277.936 73.8017C278.728 74.6454 279.123 75.6871 279.123 76.9267C279.123 77.9683 278.696 78.8746 277.853 79.6558C277.004 80.4475 275.957 80.8433 274.707 80.8433C273.082 80.8433 271.353 80.2496 269.519 79.0725C265.212 76.3329 262.373 74.9683 260.998 74.9683C257.483 74.9683 254.545 75.7808 252.186 77.4058L250.228 74.4683C251.67 73.9579 252.842 73.1142 253.748 71.9475C254.665 70.7704 255.123 69.4892 255.123 68.1142V27.9683H252.186C251.212 27.9683 250.728 27.484 250.728 26.51C250.728 25.5256 251.212 25.0308 252.186 25.0308Z" fill="url(#paint4_linear_201_43)"/>
<path d="M286.334 30.8103C286.334 29.1853 286.902 27.8051 288.043 26.6645C289.194 25.5134 290.584 24.9353 292.209 24.9353H309.355V50.3936C309.355 52.477 310.168 54.3051 311.793 55.8728C313.428 57.4457 315.386 58.227 317.668 58.227C321.527 58.227 324.959 56.1124 327.959 51.8728V27.8728H325.022C324.032 27.8728 323.543 27.3884 323.543 26.4145C323.543 25.4301 324.032 24.9353 325.022 24.9353H342.647C343.616 24.9353 344.105 25.4301 344.105 26.4145C344.105 27.3884 343.616 27.8728 342.647 27.8728H339.709V68.9978C339.709 70.9561 340.168 72.6853 341.084 74.1853C342.001 75.6853 343.173 76.5655 344.605 76.8311C344.272 76.4978 344.105 76.0395 344.105 75.4561C344.105 74.6749 344.48 73.9822 345.23 73.3728C345.991 72.7478 346.923 72.4353 348.022 72.4353C349.074 72.4353 349.991 72.8624 350.772 73.7061C351.548 74.5499 351.939 75.5916 351.939 76.8311C351.939 77.8728 351.512 78.7791 350.668 79.5603C349.819 80.352 348.777 80.7478 347.543 80.7478C345.902 80.7478 344.173 80.1541 342.355 78.977C338.048 76.2374 335.209 74.8728 333.834 74.8728C330.303 74.8728 327.366 75.6853 325.022 77.3103L323.064 74.3728C324.491 73.8624 325.668 73.0186 326.584 71.852C327.501 70.6749 327.959 69.3936 327.959 68.0186V56.2686C325.152 60.1853 320.907 62.1436 315.23 62.1436C310.324 62.1436 306.157 60.7791 302.73 58.0395C299.314 55.2895 297.605 51.9301 297.605 47.9561V30.8103C297.605 30.0343 297.178 29.352 296.334 28.7686C295.485 28.1749 294.439 27.8728 293.189 27.8728C291.439 27.8728 290.459 28.2009 290.251 28.852C291.235 28.852 292.053 29.0811 292.709 29.5395C293.36 29.9978 293.689 30.5916 293.689 31.3103C293.689 32.2843 293.423 33.0968 292.897 33.7478C292.381 34.4041 291.668 34.727 290.751 34.727C289.511 34.727 288.465 34.3728 287.605 33.6645C286.756 32.9457 286.334 31.9926 286.334 30.8103Z" fill="url(#paint5_linear_201_43)"/>
<path d="M358.307 24.9354H375.932C376.901 24.9354 377.39 25.4302 377.39 26.4146C377.39 27.3885 376.901 27.8729 375.932 27.8729H372.995V68.9979C372.995 70.9562 373.443 72.6854 374.349 74.1854C375.265 75.6854 376.443 76.5656 377.89 76.8312C377.557 76.4979 377.39 76.0396 377.39 75.4562C377.39 74.675 377.765 73.9823 378.515 73.3729C379.265 72.7479 380.193 72.4354 381.307 72.4354C382.359 72.4354 383.276 72.8625 384.057 73.7062C384.833 74.55 385.224 75.5916 385.224 76.8312C385.224 77.8729 384.797 78.7791 383.953 79.5604C383.104 80.3521 382.062 80.7479 380.828 80.7479C379.187 80.7479 377.458 80.1541 375.64 78.9771C371.333 76.2375 368.495 74.8729 367.12 74.8729C363.588 74.8729 360.651 75.6854 358.307 77.3104L356.349 74.3729C357.776 73.8625 358.953 73.0187 359.87 71.8521C360.786 70.675 361.245 69.3937 361.245 68.0187V27.8729H358.307C357.318 27.8729 356.828 27.3885 356.828 26.4146C356.828 25.4302 357.318 24.9354 358.307 24.9354ZM328.432 9.08122C328.432 7.05518 329.286 5.32601 330.995 3.89372C332.693 2.45101 334.776 1.72705 337.245 1.72705C339.734 1.72705 342.547 2.51351 345.682 4.08122C348.807 5.65413 352.193 7.97184 355.849 11.0396C361.474 15.6125 366.693 17.8937 371.515 17.8937C373.734 17.8937 375.37 17.5708 376.411 16.9146C375.63 18.9979 374.375 20.6646 372.64 21.9146C370.917 23.1541 368.911 23.7687 366.62 23.7687C362.963 23.7687 359.39 22.8885 355.89 21.1229C352.401 19.3625 349.292 16.8104 346.557 13.4771C342.182 8.2583 338.427 5.64372 335.286 5.64372C334.052 5.64372 333.031 6.10205 332.224 7.01872C331.406 7.93538 331.12 8.95101 331.37 10.0604C331.828 9.07601 332.651 8.58122 333.828 8.58122C335.786 8.58122 336.765 9.40413 336.765 11.0396C336.765 11.8208 336.443 12.5083 335.786 13.1021C335.135 13.6854 334.318 13.9771 333.328 13.9771C331.969 13.9771 330.818 13.5083 329.87 12.5604C328.911 11.6021 328.432 10.4458 328.432 9.08122Z" fill="url(#paint6_linear_201_43)"/>
<path d="M383.947 56.2686C383.947 52.477 385.54 49.2478 388.738 46.5811C391.947 43.9041 395.894 42.5603 400.592 42.5603C403.269 42.5603 405.572 41.7634 407.488 40.1645C409.415 38.5707 410.384 36.5968 410.384 34.2478C410.384 32.4874 409.561 30.9874 407.926 29.7478C406.301 28.4978 404.348 27.8728 402.072 27.8728C399.53 27.8728 397.426 28.2374 395.759 28.9561C394.092 29.6645 393.259 30.6124 393.259 31.7895C393.259 32.6384 392.863 33.0603 392.072 33.0603C391.223 33.0603 390.801 32.6384 390.801 31.7895V26.4145C393.551 25.4301 398.118 24.9353 404.509 24.9353C409.993 24.9353 414.624 25.9353 418.405 27.9353C422.197 29.9249 424.092 32.352 424.092 35.227C424.092 37.7686 422.947 39.9561 420.655 41.7895C418.374 43.6124 415.603 44.5186 412.342 44.5186C407.967 44.5186 404.259 45.7166 401.217 48.102C398.186 50.477 396.676 53.3676 396.676 56.7686C396.676 60.5499 397.749 63.7791 399.905 66.4561C402.072 69.1384 404.749 70.477 407.947 70.477C410.415 70.477 412.957 69.3676 415.572 67.1436C418.181 64.9249 420.368 61.9509 422.134 58.227L429.967 65.0811C425.009 70.9561 417.499 73.8936 407.447 73.8936C400.988 73.8936 395.452 72.1645 390.842 68.7061C386.243 65.2478 383.947 61.102 383.947 56.2686Z" fill="url(#paint7_linear_201_43)"/>
<path d="M395.113 11.727C395.113 8.6593 396.697 6.01347 399.863 3.78951C403.03 1.57076 406.832 0.456177 411.259 0.456177H425.467V8.28951C425.467 8.87284 425.176 9.16451 424.592 9.16451C423.999 9.16451 423.603 8.63326 423.405 7.56034C423.212 6.47701 422.384 5.43534 420.926 4.43534C419.457 3.42493 417.707 2.91451 415.676 2.91451C413.332 2.91451 411.358 3.9093 409.759 5.89368C408.15 7.88326 407.342 10.3103 407.342 13.1853C407.342 18.2843 409.467 22.0395 413.717 24.4562L412.738 26.4145C407.905 26.4145 403.759 24.977 400.301 22.102C396.842 19.227 395.113 15.7687 395.113 11.727Z" fill="url(#paint8_linear_201_43)"/>
<path d="M430.655 49.4145C430.655 42.6228 433.493 36.8468 439.176 32.0811C444.853 27.3207 451.806 24.9353 460.03 24.9353H466.384V30.8103C466.384 31.5343 466.03 31.8936 465.322 31.8936C464.598 31.8936 464.155 31.5082 463.988 30.727C463.832 29.9353 463.249 29.2634 462.238 28.7061C461.223 28.1541 459.993 27.8728 458.551 27.8728C454.509 27.8728 451.051 29.9666 448.176 34.1436C445.301 38.3259 443.863 43.4145 443.863 49.4145C443.863 55.2218 445.228 60.1853 447.967 64.3103C450.717 68.4249 454.082 70.477 458.072 70.477C461.457 70.477 463.577 69.3311 464.426 67.0395C464.035 67.2374 463.681 67.3311 463.363 67.3311C462.639 67.3311 461.978 67.0291 461.384 66.4145C460.801 65.7895 460.509 65.0186 460.509 64.102C460.509 63.3259 460.832 62.6436 461.488 62.0603C462.139 61.4666 462.957 61.1645 463.947 61.1645C464.915 61.1645 465.728 61.6228 466.384 62.5395C467.035 63.4561 467.363 64.6332 467.363 66.0603C467.363 68.2166 466.269 70.0603 464.092 71.602C461.91 73.1332 459.249 73.8936 456.113 73.8936C449.056 73.8936 443.051 71.5134 438.092 66.7478C433.134 61.9874 430.655 56.2061 430.655 49.4145ZM474.217 24.9353H491.842C492.827 24.9353 493.322 25.4301 493.322 26.4145C493.322 27.3884 492.827 27.8728 491.842 27.8728H488.905V68.9978C488.905 70.9561 489.363 72.6853 490.28 74.1853C491.197 75.6853 492.368 76.5655 493.801 76.8311C493.478 76.4978 493.322 76.0395 493.322 75.4561C493.322 74.6749 493.697 73.9822 494.447 73.3728C495.197 72.7478 496.124 72.4353 497.238 72.4353C498.28 72.4353 499.186 72.8624 499.967 73.7061C500.759 74.5499 501.155 75.5916 501.155 76.8311C501.155 77.8728 500.728 78.7791 499.884 79.5603C499.035 80.352 497.988 80.7478 496.738 80.7478C495.113 80.7478 493.384 80.1541 491.551 78.977C487.243 76.2374 484.405 74.8728 483.03 74.8728C479.514 74.8728 476.577 75.6853 474.217 77.3103L472.259 74.3728C473.702 73.8624 474.874 73.0186 475.78 71.852C476.697 70.6749 477.155 69.3936 477.155 68.0186V49.4145H460.509C460.061 49.4145 459.707 49.6124 459.447 49.9978C459.181 50.3884 459.051 50.8832 459.051 51.477C459.051 52.0603 459.207 52.6801 459.53 53.3311C459.863 53.8624 459.801 54.352 459.342 54.8103C458.884 55.2582 458.457 55.2582 458.072 54.8103L452.197 44.0395C451.863 43.6384 451.853 43.2166 452.176 42.7686C452.509 42.3103 452.905 42.0811 453.363 42.0811C453.697 42.0811 453.957 42.2426 454.155 42.5603C455.264 44.5186 456.728 45.4978 458.551 45.4978H477.155V27.8728H474.217C473.243 27.8728 472.759 27.3884 472.759 26.4145C472.759 25.4301 473.243 24.9353 474.217 24.9353Z" fill="url(#paint9_linear_201_43)"/>
<defs>
<linearGradient id="paint0_linear_201_43" x1="44.279" y1="25.031" x2="44.279" y2="80.8435" gradientUnits="userSpaceOnUse">
<stop stop-color="#FE891F"/>
<stop offset="1" stop-color="#D76600"/>
</linearGradient>
<linearGradient id="paint1_linear_201_43" x1="105.47" y1="25.031" x2="105.47" y2="80.8435" gradientUnits="userSpaceOnUse">
<stop stop-color="#FE891F"/>
<stop offset="1" stop-color="#D76600"/>
</linearGradient>
<linearGradient id="paint2_linear_201_43" x1="142.775" y1="24.0518" x2="142.775" y2="74.4684" gradientUnits="userSpaceOnUse">
<stop stop-color="#FE891F"/>
<stop offset="1" stop-color="#D76600"/>
</linearGradient>
<linearGradient id="paint3_linear_201_43" x1="188.891" y1="25.031" x2="188.891" y2="80.8435" gradientUnits="userSpaceOnUse">
<stop stop-color="#FE891F"/>
<stop offset="1" stop-color="#D76600"/>
</linearGradient>
<linearGradient id="paint4_linear_201_43" x1="240.936" y1="23.0725" x2="240.936" y2="80.8433" gradientUnits="userSpaceOnUse">
<stop stop-color="#FE891F"/>
<stop offset="1" stop-color="#D76600"/>
</linearGradient>
<linearGradient id="paint5_linear_201_43" x1="319.136" y1="24.9353" x2="319.136" y2="80.7478" gradientUnits="userSpaceOnUse">
<stop stop-color="#008D16"/>
<stop offset="1" stop-color="#006B11"/>
</linearGradient>
<linearGradient id="paint6_linear_201_43" x1="356.828" y1="1.72705" x2="356.828" y2="80.7479" gradientUnits="userSpaceOnUse">
<stop stop-color="#008D16"/>
<stop offset="1" stop-color="#006B11"/>
</linearGradient>
<linearGradient id="paint7_linear_201_43" x1="406.957" y1="24.9353" x2="406.957" y2="73.8936" gradientUnits="userSpaceOnUse">
<stop stop-color="#008D16"/>
<stop offset="1" stop-color="#006B11"/>
</linearGradient>
<linearGradient id="paint8_linear_201_43" x1="410.29" y1="0.456177" x2="410.29" y2="26.4145" gradientUnits="userSpaceOnUse">
<stop stop-color="#008D16"/>
<stop offset="1" stop-color="#006B11"/>
</linearGradient>
<linearGradient id="paint9_linear_201_43" x1="465.905" y1="24.9353" x2="465.905" y2="80.7478" gradientUnits="userSpaceOnUse">
<stop stop-color="#008D16"/>
<stop offset="1" stop-color="#006B11"/>
</linearGradient>
</defs>
</svg>
