<svg xmlns="http://www.w3.org/2000/svg" xmlns:xlink="http://www.w3.org/1999/xlink" width="512" zoomAndPan="magnify" viewBox="0 0 384 61.499998" height="82" preserveAspectRatio="xMidYMid meet" version="1.0"><defs><g><g id="id1"/><g id="id2"/></g></defs><g fill="rgb(99.609375%, 53.729248%, 12.159729%)" fill-opacity="1"><g transform="translate(1.053033, 55.491943)"><g><path d="M 1.546875 -14.6875 C 1.546875 -15.863281 2.007812 -16.890625 2.9375 -17.765625 C 3.863281 -18.648438 4.988281 -19.09375 6.3125 -19.09375 L 12.5625 -18.71875 C 14.613281 -18.71875 16.347656 -19.523438 17.765625 -21.140625 C 19.191406 -22.765625 19.90625 -24.773438 19.90625 -27.171875 C 19.90625 -29.128906 19.15625 -30.78125 17.65625 -32.125 C 16.164062 -33.46875 14.34375 -34.140625 12.1875 -34.140625 C 10.863281 -34.140625 9.703125 -33.867188 8.703125 -33.328125 C 7.703125 -32.796875 7.03125 -32.085938 6.6875 -31.203125 C 6.539062 -30.765625 6.242188 -30.546875 5.796875 -30.546875 C 5.160156 -30.546875 4.84375 -30.890625 4.84375 -31.578125 L 4.84375 -36.71875 L 21 -36.71875 C 23.300781 -36.71875 25.285156 -35.785156 26.953125 -33.921875 C 28.617188 -32.066406 29.453125 -29.816406 29.453125 -27.171875 C 29.453125 -24.140625 28.148438 -21.546875 25.546875 -19.390625 C 22.953125 -17.234375 19.847656 -16.15625 16.234375 -16.15625 C 18.046875 -15.175781 19.117188 -13.644531 19.453125 -11.5625 C 19.796875 -9.476562 20.59375 -7.882812 21.84375 -6.78125 C 23.09375 -5.6875 24.523438 -5.140625 26.140625 -5.140625 C 28.242188 -5.140625 30.054688 -6.4375 31.578125 -9.03125 C 33.097656 -11.625 33.859375 -14.734375 33.859375 -18.359375 C 33.859375 -22.128906 33.367188 -24.578125 32.390625 -25.703125 L 41.203125 -27.53125 C 42.421875 -25.875 43.03125 -23.550781 43.03125 -20.5625 L 49.28125 -20.5625 L 49.28125 -34.515625 L 47.078125 -34.515625 C 46.335938 -34.515625 45.96875 -34.878906 45.96875 -35.609375 C 45.96875 -36.347656 46.335938 -36.71875 47.078125 -36.71875 L 60.65625 -36.71875 C 61.394531 -36.71875 61.765625 -36.347656 61.765625 -35.609375 C 61.765625 -34.878906 61.394531 -34.515625 60.65625 -34.515625 L 58.09375 -34.515625 L 58.09375 -3.671875 C 58.09375 -2.203125 58.429688 -0.90625 59.109375 0.21875 C 59.796875 1.34375 60.679688 2.003906 61.765625 2.203125 C 61.515625 1.953125 61.390625 1.609375 61.390625 1.171875 C 61.390625 0.585938 61.671875 0.0664062 62.234375 -0.390625 C 62.796875 -0.859375 63.492188 -1.09375 64.328125 -1.09375 C 65.109375 -1.09375 65.789062 -0.773438 66.375 -0.140625 C 66.96875 0.492188 67.265625 1.273438 67.265625 2.203125 C 67.265625 2.984375 66.945312 3.664062 66.3125 4.25 C 65.675781 4.84375 64.894531 5.140625 63.96875 5.140625 C 62.738281 5.140625 61.441406 4.695312 60.078125 3.8125 C 56.835938 1.757812 54.707031 0.734375 53.6875 0.734375 C 51.039062 0.734375 48.835938 1.34375 47.078125 2.5625 L 45.609375 0.359375 C 46.679688 -0.0234375 47.5625 -0.65625 48.25 -1.53125 C 48.9375 -2.414062 49.28125 -3.375 49.28125 -4.40625 L 49.28125 -17.984375 L 43.03125 -17.984375 C 42.644531 -13.734375 40.625 -10.160156 36.96875 -7.265625 C 33.320312 -4.378906 28.976562 -2.9375 23.9375 -2.9375 C 20.414062 -2.9375 17.332031 -3.84375 14.6875 -5.65625 C 12.039062 -7.46875 10.472656 -9.742188 9.984375 -12.484375 C 9.785156 -13.753906 9.304688 -14.804688 8.546875 -15.640625 C 7.796875 -16.472656 6.929688 -16.890625 5.953125 -16.890625 C 4.972656 -16.796875 4.484375 -16.425781 4.484375 -15.78125 C 5.015625 -15.78125 5.453125 -15.609375 5.796875 -15.265625 C 6.140625 -14.929688 6.3125 -14.492188 6.3125 -13.953125 C 6.3125 -13.316406 6.101562 -12.789062 5.6875 -12.375 C 5.269531 -11.957031 4.742188 -11.75 4.109375 -11.75 C 3.378906 -11.75 2.769531 -12.015625 2.28125 -12.546875 C 1.789062 -13.085938 1.546875 -13.800781 1.546875 -14.6875 Z M 1.546875 -14.6875 "/></g></g></g><g fill="rgb(99.609375%, 53.729248%, 12.159729%)" fill-opacity="1"><g transform="translate(65.234953, 55.491943)"><g><path d="M 6.75 -36.71875 L 19.96875 -36.71875 C 20.707031 -36.71875 21.078125 -36.347656 21.078125 -35.609375 C 21.078125 -34.878906 20.707031 -34.515625 19.96875 -34.515625 L 17.765625 -34.515625 L 17.765625 -3.671875 C 17.765625 -2.203125 18.109375 -0.90625 18.796875 0.21875 C 19.484375 1.34375 20.363281 2.003906 21.4375 2.203125 C 21.195312 1.953125 21.078125 1.609375 21.078125 1.171875 C 21.078125 0.585938 21.359375 0.0664062 21.921875 -0.390625 C 22.484375 -0.859375 23.179688 -1.09375 24.015625 -1.09375 C 24.796875 -1.09375 25.476562 -0.773438 26.0625 -0.140625 C 26.65625 0.492188 26.953125 1.273438 26.953125 2.203125 C 26.953125 2.984375 26.632812 3.664062 26 4.25 C 25.363281 4.84375 24.578125 5.140625 23.640625 5.140625 C 22.421875 5.140625 21.125 4.695312 19.75 3.8125 C 16.519531 1.757812 14.390625 0.734375 13.359375 0.734375 C 10.722656 0.734375 8.519531 1.34375 6.75 2.5625 L 5.28125 0.359375 C 6.363281 -0.0234375 7.242188 -0.65625 7.921875 -1.53125 C 8.609375 -2.414062 8.953125 -3.375 8.953125 -4.40625 L 8.953125 -34.515625 L 6.75 -34.515625 C 6.019531 -34.515625 5.65625 -34.878906 5.65625 -35.609375 C 5.65625 -36.347656 6.019531 -36.71875 6.75 -36.71875 Z M 6.75 -36.71875 "/></g></g></g><g fill="rgb(99.609375%, 53.729248%, 12.159729%)" fill-opacity="1"><g transform="translate(89.541843, 55.491943)"><g><path d="M 3.078125 -29.375 C 3.078125 -31.625 4.5 -33.53125 7.34375 -35.09375 C 10.1875 -36.664062 13.660156 -37.453125 17.765625 -37.453125 C 21.003906 -37.453125 23.710938 -36.890625 25.890625 -35.765625 C 28.066406 -34.640625 29.15625 -33.242188 29.15625 -31.578125 C 29.15625 -30.648438 28.835938 -29.863281 28.203125 -29.21875 C 27.566406 -28.582031 26.78125 -28.265625 25.84375 -28.265625 C 25.007812 -28.265625 24.3125 -28.546875 23.75 -29.109375 C 23.1875 -29.679688 22.90625 -30.378906 22.90625 -31.203125 C 22.90625 -31.796875 23.148438 -32.335938 23.640625 -32.828125 C 24.128906 -33.316406 24.742188 -33.632812 25.484375 -33.78125 C 24.890625 -34.269531 22.6875 -34.515625 18.875 -34.515625 C 17.007812 -34.515625 15.441406 -34.023438 14.171875 -33.046875 C 12.898438 -32.066406 12.265625 -30.84375 12.265625 -29.375 C 12.265625 -27.613281 13.007812 -26.128906 14.5 -24.921875 C 16 -23.722656 17.820312 -23.125 19.96875 -23.125 C 24.71875 -23.125 29.738281 -24.347656 35.03125 -26.796875 L 36.5 -23.125 L 21.8125 -19.09375 C 25.382812 -19.09375 28.414062 -18.285156 30.90625 -16.671875 C 33.40625 -15.054688 34.65625 -13.046875 34.65625 -10.640625 C 34.65625 -7.609375 33.015625 -5.015625 29.734375 -2.859375 C 26.460938 -0.710938 22.472656 0.359375 17.765625 0.359375 C 13.953125 0.359375 10.734375 -0.445312 8.109375 -2.0625 C 5.492188 -3.675781 4.1875 -5.679688 4.1875 -8.078125 C 4.1875 -8.910156 4.46875 -9.609375 5.03125 -10.171875 C 5.59375 -10.734375 6.289062 -11.015625 7.125 -11.015625 C 7.957031 -11.015625 8.65625 -10.734375 9.21875 -10.171875 C 9.78125 -9.609375 10.0625 -8.910156 10.0625 -8.078125 C 10.0625 -7.535156 9.863281 -7.054688 9.46875 -6.640625 C 9.082031 -6.222656 8.546875 -5.96875 7.859375 -5.875 C 8.691406 -4.84375 9.863281 -4.03125 11.375 -3.4375 C 12.894531 -2.851562 14.535156 -2.5625 16.296875 -2.5625 C 18.992188 -2.5625 21.257812 -3.457031 23.09375 -5.25 C 24.925781 -7.039062 25.84375 -9.207031 25.84375 -11.75 C 25.84375 -13.363281 25.191406 -14.742188 23.890625 -15.890625 C 22.597656 -17.046875 21.046875 -17.625 19.234375 -17.625 L 4.546875 -13.21875 L 3.453125 -16.890625 L 19.609375 -21.296875 C 15.054688 -21.296875 11.160156 -22.078125 7.921875 -23.640625 C 4.691406 -25.210938 3.078125 -27.125 3.078125 -29.375 Z M 3.078125 -29.375 "/></g></g></g><g fill="rgb(99.609375%, 53.729248%, 12.159729%)" fill-opacity="1"><g transform="translate(127.801325, 55.491943)"><g><path d="M 6.75 -36.71875 L 19.96875 -36.71875 C 20.707031 -36.71875 21.078125 -36.347656 21.078125 -35.609375 C 21.078125 -34.878906 20.707031 -34.515625 19.96875 -34.515625 L 17.765625 -34.515625 L 17.765625 -3.671875 C 17.765625 -2.203125 18.109375 -0.90625 18.796875 0.21875 C 19.484375 1.34375 20.363281 2.003906 21.4375 2.203125 C 21.195312 1.953125 21.078125 1.609375 21.078125 1.171875 C 21.078125 0.585938 21.359375 0.0664062 21.921875 -0.390625 C 22.484375 -0.859375 23.179688 -1.09375 24.015625 -1.09375 C 24.796875 -1.09375 25.476562 -0.773438 26.0625 -0.140625 C 26.65625 0.492188 26.953125 1.273438 26.953125 2.203125 C 26.953125 2.984375 26.632812 3.664062 26 4.25 C 25.363281 4.84375 24.578125 5.140625 23.640625 5.140625 C 22.421875 5.140625 21.125 4.695312 19.75 3.8125 C 16.519531 1.757812 14.390625 0.734375 13.359375 0.734375 C 10.722656 0.734375 8.519531 1.34375 6.75 2.5625 L 5.28125 0.359375 C 6.363281 -0.0234375 7.242188 -0.65625 7.921875 -1.53125 C 8.609375 -2.414062 8.953125 -3.375 8.953125 -4.40625 L 8.953125 -34.515625 L 6.75 -34.515625 C 6.019531 -34.515625 5.65625 -34.878906 5.65625 -35.609375 C 5.65625 -36.347656 6.019531 -36.71875 6.75 -36.71875 Z M 6.75 -36.71875 "/></g></g></g><g fill="rgb(99.609375%, 53.729248%, 12.159729%)" fill-opacity="1"><g transform="translate(152.108216, 55.491943)"><g><path d="M 13.578125 -30.84375 C 13.578125 -29.664062 13.96875 -28.632812 14.75 -27.75 C 15.539062 -26.875 16.5 -26.4375 17.625 -26.4375 C 19.488281 -26.4375 21.078125 -26.628906 22.390625 -27.015625 C 23.710938 -27.410156 24.570312 -27.953125 24.96875 -28.640625 C 24.132812 -28.640625 23.4375 -28.8125 22.875 -29.15625 C 22.3125 -29.5 22.03125 -29.9375 22.03125 -30.46875 C 22.03125 -31.007812 22.273438 -31.453125 22.765625 -31.796875 C 23.253906 -32.140625 23.863281 -32.3125 24.59375 -32.3125 C 25.425781 -32.40625 26.160156 -32.035156 26.796875 -31.203125 C 26.410156 -32.179688 25.664062 -32.976562 24.5625 -33.59375 C 23.457031 -34.207031 22.125 -34.515625 20.5625 -34.515625 C 18.601562 -34.515625 16.945312 -34.160156 15.59375 -33.453125 C 14.25 -32.742188 13.578125 -31.875 13.578125 -30.84375 Z M 3.671875 -30.109375 C 3.671875 -32.359375 5.160156 -34.265625 8.140625 -35.828125 C 11.128906 -37.398438 14.78125 -38.1875 19.09375 -38.1875 C 23.988281 -38.1875 28.148438 -37.179688 31.578125 -35.171875 C 35.003906 -33.171875 36.71875 -30.75 36.71875 -27.90625 C 36.71875 -24.476562 34.929688 -21.539062 31.359375 -19.09375 C 27.785156 -16.644531 23.453125 -15.421875 18.359375 -15.421875 C 19.878906 -14.640625 21.101562 -12.953125 22.03125 -10.359375 C 22.957031 -7.765625 23.957031 -5.691406 25.03125 -4.140625 C 26.113281 -2.597656 27.070312 -1.828125 27.90625 -1.828125 C 28.789062 -1.828125 29.625 -2.21875 30.40625 -3 C 31.1875 -3.789062 31.820312 -4.867188 32.3125 -6.234375 C 32.457031 -6.628906 32.75 -6.828125 33.1875 -6.828125 C 33.582031 -6.828125 33.78125 -6.628906 33.78125 -6.234375 L 33.78125 0 L 24.96875 0 C 22.320312 0 19.859375 -0.90625 17.578125 -2.71875 C 15.304688 -4.53125 13.609375 -6.925781 12.484375 -9.90625 C 11.703125 -12.0625 10.804688 -13.765625 9.796875 -15.015625 C 8.796875 -16.265625 7.851562 -16.890625 6.96875 -16.890625 C 5.65625 -16.890625 4.921875 -16.398438 4.765625 -15.421875 C 5.503906 -15.421875 6.117188 -15.25 6.609375 -14.90625 C 7.097656 -14.5625 7.34375 -14.117188 7.34375 -13.578125 C 7.34375 -12.941406 7.132812 -12.414062 6.71875 -12 C 6.300781 -11.582031 5.773438 -11.375 5.140625 -11.375 C 4.304688 -11.375 3.609375 -11.65625 3.046875 -12.21875 C 2.484375 -12.789062 2.203125 -13.488281 2.203125 -14.3125 C 2.203125 -15.78125 2.691406 -17.003906 3.671875 -17.984375 C 4.648438 -18.960938 5.875 -19.453125 7.34375 -19.453125 C 8.175781 -19.453125 9.765625 -19.132812 12.109375 -18.5 C 13.390625 -18.15625 14.367188 -17.984375 15.046875 -17.984375 C 18.429688 -17.984375 21.296875 -19.007812 23.640625 -21.0625 C 25.992188 -23.125 27.171875 -25.648438 27.171875 -28.640625 C 26.585938 -27.023438 25.273438 -25.703125 23.234375 -24.671875 C 21.203125 -23.640625 18.84375 -23.125 16.15625 -23.125 C 12.726562 -23.125 9.789062 -23.8125 7.34375 -25.1875 C 4.894531 -26.5625 3.671875 -28.203125 3.671875 -30.109375 Z M 39.28125 -36.71875 L 52.5 -36.71875 C 53.238281 -36.71875 53.609375 -36.347656 53.609375 -35.609375 C 53.609375 -34.878906 53.238281 -34.515625 52.5 -34.515625 L 50.296875 -34.515625 L 50.296875 -3.671875 C 50.296875 -2.203125 50.640625 -0.90625 51.328125 0.21875 C 52.015625 1.34375 52.894531 2.003906 53.96875 2.203125 C 53.726562 1.953125 53.609375 1.609375 53.609375 1.171875 C 53.609375 0.585938 53.890625 0.0664062 54.453125 -0.390625 C 55.015625 -0.859375 55.710938 -1.09375 56.546875 -1.09375 C 57.328125 -1.09375 58.007812 -0.773438 58.59375 -0.140625 C 59.1875 0.492188 59.484375 1.273438 59.484375 2.203125 C 59.484375 2.984375 59.164062 3.664062 58.53125 4.25 C 57.894531 4.84375 57.109375 5.140625 56.171875 5.140625 C 54.953125 5.140625 53.65625 4.695312 52.28125 3.8125 C 49.050781 1.757812 46.921875 0.734375 45.890625 0.734375 C 43.253906 0.734375 41.050781 1.34375 39.28125 2.5625 L 37.8125 0.359375 C 38.894531 -0.0234375 39.773438 -0.65625 40.453125 -1.53125 C 41.140625 -2.414062 41.484375 -3.375 41.484375 -4.40625 L 41.484375 -34.515625 L 39.28125 -34.515625 C 38.550781 -34.515625 38.1875 -34.878906 38.1875 -35.609375 C 38.1875 -36.347656 38.550781 -36.71875 39.28125 -36.71875 Z M 39.28125 -36.71875 "/></g></g></g><g fill="rgb(0%, 55.288696%, 8.628845%)" fill-opacity="1"><g transform="translate(215.907024, 55.420282)"><g><path d="M 1.09375 -32.3125 C 1.09375 -33.53125 1.519531 -34.566406 2.375 -35.421875 C 3.238281 -36.285156 4.28125 -36.71875 5.5 -36.71875 L 18.359375 -36.71875 L 18.359375 -17.625 C 18.359375 -16.0625 18.96875 -14.691406 20.1875 -13.515625 C 21.414062 -12.335938 22.882812 -11.75 24.59375 -11.75 C 27.488281 -11.75 30.0625 -13.335938 32.3125 -16.515625 L 32.3125 -34.515625 L 30.109375 -34.515625 C 29.367188 -34.515625 29 -34.878906 29 -35.609375 C 29 -36.347656 29.367188 -36.71875 30.109375 -36.71875 L 43.328125 -36.71875 C 44.054688 -36.71875 44.421875 -36.347656 44.421875 -35.609375 C 44.421875 -34.878906 44.054688 -34.515625 43.328125 -34.515625 L 41.125 -34.515625 L 41.125 -3.671875 C 41.125 -2.203125 41.46875 -0.90625 42.15625 0.21875 C 42.84375 1.34375 43.722656 2.003906 44.796875 2.203125 C 44.546875 1.953125 44.421875 1.609375 44.421875 1.171875 C 44.421875 0.585938 44.703125 0.0664062 45.265625 -0.390625 C 45.835938 -0.859375 46.535156 -1.09375 47.359375 -1.09375 C 48.148438 -1.09375 48.835938 -0.773438 49.421875 -0.140625 C 50.003906 0.492188 50.296875 1.273438 50.296875 2.203125 C 50.296875 2.984375 49.976562 3.664062 49.34375 4.25 C 48.707031 4.84375 47.925781 5.140625 47 5.140625 C 45.769531 5.140625 44.472656 4.695312 43.109375 3.8125 C 39.878906 1.757812 37.75 0.734375 36.71875 0.734375 C 34.070312 0.734375 31.867188 1.34375 30.109375 2.5625 L 28.640625 0.359375 C 29.710938 -0.0234375 30.59375 -0.65625 31.28125 -1.53125 C 31.96875 -2.414062 32.3125 -3.375 32.3125 -4.40625 L 32.3125 -13.21875 C 30.207031 -10.28125 27.023438 -8.8125 22.765625 -8.8125 C 19.085938 -8.8125 15.960938 -9.835938 13.390625 -11.890625 C 10.828125 -13.953125 9.546875 -16.472656 9.546875 -19.453125 L 9.546875 -32.3125 C 9.546875 -32.894531 9.226562 -33.40625 8.59375 -33.84375 C 7.957031 -34.289062 7.171875 -34.515625 6.234375 -34.515625 C 4.921875 -34.515625 4.1875 -34.269531 4.03125 -33.78125 C 4.769531 -33.78125 5.382812 -33.609375 5.875 -33.265625 C 6.363281 -32.921875 6.609375 -32.476562 6.609375 -31.9375 C 6.609375 -31.207031 6.410156 -30.597656 6.015625 -30.109375 C 5.628906 -29.617188 5.09375 -29.375 4.40625 -29.375 C 3.476562 -29.375 2.691406 -29.640625 2.046875 -30.171875 C 1.410156 -30.710938 1.09375 -31.425781 1.09375 -32.3125 Z M 1.09375 -32.3125 "/></g></g></g><g fill="rgb(0%, 55.288696%, 8.628845%)" fill-opacity="1"><g transform="translate(263.120996, 55.420282)"><g><path d="M 7.859375 -36.71875 L 21.078125 -36.71875 C 21.804688 -36.71875 22.171875 -36.347656 22.171875 -35.609375 C 22.171875 -34.878906 21.804688 -34.515625 21.078125 -34.515625 L 18.875 -34.515625 L 18.875 -3.671875 C 18.875 -2.203125 19.210938 -0.90625 19.890625 0.21875 C 20.578125 1.34375 21.460938 2.003906 22.546875 2.203125 C 22.296875 1.953125 22.171875 1.609375 22.171875 1.171875 C 22.171875 0.585938 22.453125 0.0664062 23.015625 -0.390625 C 23.578125 -0.859375 24.273438 -1.09375 25.109375 -1.09375 C 25.898438 -1.09375 26.585938 -0.773438 27.171875 -0.140625 C 27.753906 0.492188 28.046875 1.273438 28.046875 2.203125 C 28.046875 2.984375 27.726562 3.664062 27.09375 4.25 C 26.457031 4.84375 25.675781 5.140625 24.75 5.140625 C 23.519531 5.140625 22.222656 4.695312 20.859375 3.8125 C 17.628906 1.757812 15.5 0.734375 14.46875 0.734375 C 11.820312 0.734375 9.617188 1.34375 7.859375 2.5625 L 6.390625 0.359375 C 7.460938 -0.0234375 8.34375 -0.65625 9.03125 -1.53125 C 9.71875 -2.414062 10.0625 -3.375 10.0625 -4.40625 L 10.0625 -34.515625 L 7.859375 -34.515625 C 7.117188 -34.515625 6.75 -34.878906 6.75 -35.609375 C 6.75 -36.347656 7.117188 -36.71875 7.859375 -36.71875 Z M -14.546875 -48.609375 C -14.546875 -50.128906 -13.90625 -51.425781 -12.625 -52.5 C -11.351562 -53.582031 -9.789062 -54.125 -7.9375 -54.125 C -6.070312 -54.125 -3.960938 -53.535156 -1.609375 -52.359375 C 0.734375 -51.179688 3.273438 -49.441406 6.015625 -47.140625 C 10.234375 -43.710938 14.148438 -42 17.765625 -42 C 19.429688 -42 20.65625 -42.242188 21.4375 -42.734375 C 20.851562 -41.171875 19.910156 -39.921875 18.609375 -38.984375 C 17.316406 -38.054688 15.8125 -37.59375 14.09375 -37.59375 C 11.351562 -37.59375 8.671875 -38.253906 6.046875 -39.578125 C 3.429688 -40.898438 1.097656 -42.8125 -0.953125 -45.3125 C -4.234375 -49.226562 -7.050781 -51.1875 -9.40625 -51.1875 C -10.332031 -51.1875 -11.097656 -50.84375 -11.703125 -50.15625 C -12.316406 -49.46875 -12.53125 -48.707031 -12.34375 -47.875 C -12 -48.613281 -11.382812 -48.984375 -10.5 -48.984375 C -9.03125 -48.984375 -8.296875 -48.367188 -8.296875 -47.140625 C -8.296875 -46.554688 -8.539062 -46.039062 -9.03125 -45.59375 C -9.519531 -45.15625 -10.132812 -44.9375 -10.875 -44.9375 C -11.894531 -44.9375 -12.757812 -45.289062 -13.46875 -46 C -14.1875 -46.71875 -14.546875 -47.585938 -14.546875 -48.609375 Z M -14.546875 -48.609375 "/></g></g></g><g fill="rgb(0%, 55.288696%, 8.628845%)" fill-opacity="1"><g transform="translate(287.86611, 55.420282)"><g><path d="M 2.34375 -13.21875 C 2.34375 -16.0625 3.539062 -18.484375 5.9375 -20.484375 C 8.34375 -22.492188 11.304688 -23.5 14.828125 -23.5 C 16.835938 -23.5 18.5625 -24.097656 20 -25.296875 C 21.445312 -26.492188 22.171875 -27.972656 22.171875 -29.734375 C 22.171875 -31.054688 21.554688 -32.179688 20.328125 -33.109375 C 19.109375 -34.046875 17.644531 -34.515625 15.9375 -34.515625 C 14.03125 -34.515625 12.453125 -34.242188 11.203125 -33.703125 C 9.953125 -33.171875 9.328125 -32.460938 9.328125 -31.578125 C 9.328125 -30.941406 9.03125 -30.625 8.4375 -30.625 C 7.800781 -30.625 7.484375 -30.941406 7.484375 -31.578125 L 7.484375 -35.609375 C 9.546875 -36.347656 12.972656 -36.71875 17.765625 -36.71875 C 21.878906 -36.71875 25.351562 -35.96875 28.1875 -34.46875 C 31.03125 -32.976562 32.453125 -31.15625 32.453125 -29 C 32.453125 -27.09375 31.59375 -25.453125 29.875 -24.078125 C 28.164062 -22.710938 26.085938 -22.03125 23.640625 -22.03125 C 20.359375 -22.03125 17.578125 -21.132812 15.296875 -19.34375 C 13.023438 -17.5625 11.890625 -15.394531 11.890625 -12.84375 C 11.890625 -10.007812 12.695312 -7.585938 14.3125 -5.578125 C 15.9375 -3.566406 17.945312 -2.5625 20.34375 -2.5625 C 22.195312 -2.5625 24.101562 -3.394531 26.0625 -5.0625 C 28.019531 -6.726562 29.660156 -8.957031 30.984375 -11.75 L 36.859375 -6.609375 C 33.140625 -2.203125 27.507812 0 19.96875 0 C 15.125 0 10.972656 -1.296875 7.515625 -3.890625 C 4.066406 -6.484375 2.34375 -9.59375 2.34375 -13.21875 Z M 2.34375 -13.21875 "/></g></g></g><g fill="rgb(0%, 55.288696%, 8.628845%)" fill-opacity="1"><g transform="translate(322.303676, 55.420282)"><g><path d="M -23.71875 -46.625 C -23.71875 -48.925781 -22.53125 -50.910156 -20.15625 -52.578125 C -17.78125 -54.242188 -14.929688 -55.078125 -11.609375 -55.078125 L -0.953125 -55.078125 L -0.953125 -49.203125 C -0.953125 -48.765625 -1.171875 -48.546875 -1.609375 -48.546875 C -2.054688 -48.546875 -2.351562 -48.945312 -2.5 -49.75 C -2.644531 -50.5625 -3.265625 -51.34375 -4.359375 -52.09375 C -5.460938 -52.851562 -6.773438 -53.234375 -8.296875 -53.234375 C -10.054688 -53.234375 -11.535156 -52.488281 -12.734375 -51 C -13.941406 -49.507812 -14.546875 -47.6875 -14.546875 -45.53125 C -14.546875 -41.707031 -12.953125 -38.890625 -9.765625 -37.078125 L -10.5 -35.609375 C -14.125 -35.609375 -17.234375 -36.6875 -19.828125 -38.84375 C -22.421875 -41 -23.71875 -43.59375 -23.71875 -46.625 Z M -23.71875 -46.625 "/></g></g><g transform="translate(322.303676, 55.420282)"><g><path d="M 2.9375 -18.359375 C 2.9375 -23.453125 5.066406 -27.785156 9.328125 -31.359375 C 13.585938 -34.929688 18.800781 -36.71875 24.96875 -36.71875 L 29.734375 -36.71875 L 29.734375 -32.3125 C 29.734375 -31.769531 29.46875 -31.5 28.9375 -31.5 C 28.394531 -31.5 28.0625 -31.789062 27.9375 -32.375 C 27.820312 -32.96875 27.382812 -33.472656 26.625 -33.890625 C 25.863281 -34.304688 24.941406 -34.515625 23.859375 -34.515625 C 20.828125 -34.515625 18.234375 -32.945312 16.078125 -29.8125 C 13.921875 -26.675781 12.84375 -22.859375 12.84375 -18.359375 C 12.84375 -14.003906 13.867188 -10.28125 15.921875 -7.1875 C 17.984375 -4.101562 20.507812 -2.5625 23.5 -2.5625 C 26.039062 -2.5625 27.628906 -3.421875 28.265625 -5.140625 C 27.972656 -4.992188 27.707031 -4.921875 27.46875 -4.921875 C 26.925781 -4.921875 26.429688 -5.148438 25.984375 -5.609375 C 25.546875 -6.078125 25.328125 -6.65625 25.328125 -7.34375 C 25.328125 -7.925781 25.570312 -8.4375 26.0625 -8.875 C 26.550781 -9.320312 27.164062 -9.546875 27.90625 -9.546875 C 28.632812 -9.546875 29.242188 -9.203125 29.734375 -8.515625 C 30.222656 -7.828125 30.46875 -6.945312 30.46875 -5.875 C 30.46875 -4.257812 29.648438 -2.875 28.015625 -1.71875 C 26.378906 -0.570312 24.382812 0 22.03125 0 C 16.738281 0 12.234375 -1.785156 8.515625 -5.359375 C 4.796875 -8.929688 2.9375 -13.265625 2.9375 -18.359375 Z M 35.609375 -36.71875 L 48.828125 -36.71875 C 49.566406 -36.71875 49.9375 -36.347656 49.9375 -35.609375 C 49.9375 -34.878906 49.566406 -34.515625 48.828125 -34.515625 L 46.625 -34.515625 L 46.625 -3.671875 C 46.625 -2.203125 46.96875 -0.90625 47.65625 0.21875 C 48.34375 1.34375 49.222656 2.003906 50.296875 2.203125 C 50.054688 1.953125 49.9375 1.609375 49.9375 1.171875 C 49.9375 0.585938 50.21875 0.0664062 50.78125 -0.390625 C 51.34375 -0.859375 52.039062 -1.09375 52.875 -1.09375 C 53.65625 -1.09375 54.335938 -0.773438 54.921875 -0.140625 C 55.515625 0.492188 55.8125 1.273438 55.8125 2.203125 C 55.8125 2.984375 55.492188 3.664062 54.859375 4.25 C 54.222656 4.84375 53.4375 5.140625 52.5 5.140625 C 51.28125 5.140625 49.984375 4.695312 48.609375 3.8125 C 45.378906 1.757812 43.25 0.734375 42.21875 0.734375 C 39.582031 0.734375 37.378906 1.34375 35.609375 2.5625 L 34.140625 0.359375 C 35.222656 -0.0234375 36.101562 -0.65625 36.78125 -1.53125 C 37.46875 -2.414062 37.8125 -3.375 37.8125 -4.40625 L 37.8125 -18.359375 L 25.328125 -18.359375 C 24.992188 -18.359375 24.726562 -18.210938 24.53125 -17.921875 C 24.332031 -17.628906 24.234375 -17.257812 24.234375 -16.8125 C 24.234375 -16.375 24.351562 -15.910156 24.59375 -15.421875 C 24.84375 -15.023438 24.796875 -14.65625 24.453125 -14.3125 C 24.109375 -13.976562 23.789062 -13.976562 23.5 -14.3125 L 19.09375 -22.390625 C 18.84375 -22.691406 18.835938 -23.007812 19.078125 -23.34375 C 19.328125 -23.6875 19.625 -23.859375 19.96875 -23.859375 C 20.21875 -23.859375 20.414062 -23.738281 20.5625 -23.5 C 21.394531 -22.03125 22.492188 -21.296875 23.859375 -21.296875 L 37.8125 -21.296875 L 37.8125 -34.515625 L 35.609375 -34.515625 C 34.878906 -34.515625 34.515625 -34.878906 34.515625 -35.609375 C 34.515625 -36.347656 34.878906 -36.71875 35.609375 -36.71875 Z M 35.609375 -36.71875 "/></g></g></g></svg>