<svg xmlns="http://www.w3.org/2000/svg" xmlns:xlink="http://www.w3.org/1999/xlink" width="393" zoomAndPan="magnify" viewBox="0 0 294.75 60" height="80" preserveAspectRatio="xMidYMid meet" version="1.0"><defs><g><g id="id1"/><g id="id2"/></g></defs><g fill="rgb(99.609375%, 53.729248%, 12.159729%)" fill-opacity="1"><g transform="translate(3.247585, 48.129633)"><g><path d="M 1.171875 -11.09375 C 1.171875 -11.976562 1.519531 -12.75 2.21875 -13.40625 C 2.914062 -14.070312 3.765625 -14.40625 4.765625 -14.40625 L 9.484375 -14.140625 C 11.035156 -14.140625 12.347656 -14.75 13.421875 -15.96875 C 14.492188 -17.1875 15.03125 -18.703125 15.03125 -20.515625 C 15.03125 -21.992188 14.460938 -23.238281 13.328125 -24.25 C 12.203125 -25.269531 10.828125 -25.78125 9.203125 -25.78125 C 8.203125 -25.78125 7.320312 -25.578125 6.5625 -25.171875 C 5.8125 -24.765625 5.304688 -24.226562 5.046875 -23.5625 C 4.929688 -23.226562 4.707031 -23.0625 4.375 -23.0625 C 3.894531 -23.0625 3.65625 -23.320312 3.65625 -23.84375 L 3.65625 -27.71875 L 15.859375 -27.71875 C 17.585938 -27.71875 19.082031 -27.015625 20.34375 -25.609375 C 21.601562 -24.203125 22.234375 -22.503906 22.234375 -20.515625 C 22.234375 -18.222656 21.253906 -16.265625 19.296875 -14.640625 C 17.335938 -13.015625 14.988281 -12.203125 12.25 -12.203125 C 13.613281 -11.460938 14.425781 -10.304688 14.6875 -8.734375 C 14.945312 -7.160156 15.546875 -5.957031 16.484375 -5.125 C 17.429688 -4.289062 18.515625 -3.875 19.734375 -3.875 C 21.328125 -3.875 22.695312 -4.851562 23.84375 -6.8125 C 24.988281 -8.769531 25.5625 -11.117188 25.5625 -13.859375 C 25.5625 -16.703125 25.191406 -18.550781 24.453125 -19.40625 L 31.09375 -20.796875 C 32.019531 -19.535156 32.484375 -17.773438 32.484375 -15.515625 L 37.203125 -15.515625 L 37.203125 -26.0625 L 35.53125 -26.0625 C 34.976562 -26.0625 34.703125 -26.335938 34.703125 -26.890625 C 34.703125 -27.441406 34.976562 -27.71875 35.53125 -27.71875 L 45.796875 -27.71875 C 46.347656 -27.71875 46.625 -27.441406 46.625 -26.890625 C 46.625 -26.335938 46.347656 -26.0625 45.796875 -26.0625 L 43.84375 -26.0625 L 43.84375 -2.765625 C 43.84375 -1.660156 44.101562 -0.6875 44.625 0.15625 C 45.144531 1.007812 45.8125 1.507812 46.625 1.65625 C 46.4375 1.476562 46.34375 1.222656 46.34375 0.890625 C 46.34375 0.441406 46.554688 0.046875 46.984375 -0.296875 C 47.410156 -0.648438 47.9375 -0.828125 48.5625 -0.828125 C 49.15625 -0.828125 49.671875 -0.585938 50.109375 -0.109375 C 50.554688 0.367188 50.78125 0.957031 50.78125 1.65625 C 50.78125 2.25 50.539062 2.765625 50.0625 3.203125 C 49.582031 3.648438 48.988281 3.875 48.28125 3.875 C 47.363281 3.875 46.382812 3.539062 45.34375 2.875 C 42.90625 1.320312 41.300781 0.546875 40.53125 0.546875 C 38.53125 0.546875 36.863281 1.007812 35.53125 1.9375 L 34.421875 0.28125 C 35.234375 -0.0195312 35.898438 -0.5 36.421875 -1.15625 C 36.941406 -1.820312 37.203125 -2.546875 37.203125 -3.328125 L 37.203125 -13.578125 L 32.484375 -13.578125 C 32.191406 -10.367188 30.664062 -7.671875 27.90625 -5.484375 C 25.15625 -3.304688 21.878906 -2.21875 18.078125 -2.21875 C 15.410156 -2.21875 13.078125 -2.898438 11.078125 -4.265625 C 9.085938 -5.628906 7.910156 -7.347656 7.546875 -9.421875 C 7.390625 -10.378906 7.023438 -11.171875 6.453125 -11.796875 C 5.878906 -12.429688 5.222656 -12.75 4.484375 -12.75 C 3.742188 -12.675781 3.375 -12.398438 3.375 -11.921875 C 3.78125 -11.921875 4.113281 -11.789062 4.375 -11.53125 C 4.632812 -11.269531 4.765625 -10.9375 4.765625 -10.53125 C 4.765625 -10.050781 4.609375 -9.65625 4.296875 -9.34375 C 3.984375 -9.03125 3.585938 -8.875 3.109375 -8.875 C 2.546875 -8.875 2.082031 -9.078125 1.71875 -9.484375 C 1.351562 -9.890625 1.171875 -10.425781 1.171875 -11.09375 Z M 1.171875 -11.09375 "/></g></g></g><g fill="rgb(99.609375%, 53.729248%, 12.159729%)" fill-opacity="1"><g transform="translate(51.692312, 48.129633)"><g><path d="M 5.09375 -27.71875 L 15.078125 -27.71875 C 15.628906 -27.71875 15.90625 -27.441406 15.90625 -26.890625 C 15.90625 -26.335938 15.628906 -26.0625 15.078125 -26.0625 L 13.421875 -26.0625 L 13.421875 -2.765625 C 13.421875 -1.660156 13.675781 -0.6875 14.1875 0.15625 C 14.707031 1.007812 15.375 1.507812 16.1875 1.65625 C 16 1.476562 15.90625 1.222656 15.90625 0.890625 C 15.90625 0.441406 16.117188 0.046875 16.546875 -0.296875 C 16.972656 -0.648438 17.5 -0.828125 18.125 -0.828125 C 18.71875 -0.828125 19.234375 -0.585938 19.671875 -0.109375 C 20.117188 0.367188 20.34375 0.957031 20.34375 1.65625 C 20.34375 2.25 20.101562 2.765625 19.625 3.203125 C 19.144531 3.648438 18.550781 3.875 17.84375 3.875 C 16.925781 3.875 15.945312 3.539062 14.90625 2.875 C 12.46875 1.320312 10.863281 0.546875 10.09375 0.546875 C 8.09375 0.546875 6.425781 1.007812 5.09375 1.9375 L 3.984375 0.28125 C 4.804688 -0.0195312 5.472656 -0.5 5.984375 -1.15625 C 6.503906 -1.820312 6.765625 -2.546875 6.765625 -3.328125 L 6.765625 -26.0625 L 5.09375 -26.0625 C 4.539062 -26.0625 4.265625 -26.335938 4.265625 -26.890625 C 4.265625 -27.441406 4.539062 -27.71875 5.09375 -27.71875 Z M 5.09375 -27.71875 "/></g></g></g><g fill="rgb(99.609375%, 53.729248%, 12.159729%)" fill-opacity="1"><g transform="translate(70.039234, 48.129633)"><g><path d="M 2.328125 -22.171875 C 2.328125 -23.867188 3.398438 -25.304688 5.546875 -26.484375 C 7.691406 -27.671875 10.316406 -28.265625 13.421875 -28.265625 C 15.859375 -28.265625 17.898438 -27.835938 19.546875 -26.984375 C 21.191406 -26.140625 22.015625 -25.09375 22.015625 -23.84375 C 22.015625 -23.132812 21.769531 -22.539062 21.28125 -22.0625 C 20.800781 -21.582031 20.210938 -21.34375 19.515625 -21.34375 C 18.890625 -21.34375 18.363281 -21.554688 17.9375 -21.984375 C 17.507812 -22.410156 17.296875 -22.9375 17.296875 -23.5625 C 17.296875 -24 17.476562 -24.398438 17.84375 -24.765625 C 18.21875 -25.140625 18.679688 -25.382812 19.234375 -25.5 C 18.796875 -25.875 17.132812 -26.0625 14.25 -26.0625 C 12.84375 -26.0625 11.660156 -25.691406 10.703125 -24.953125 C 9.742188 -24.210938 9.265625 -23.285156 9.265625 -22.171875 C 9.265625 -20.835938 9.828125 -19.71875 10.953125 -18.8125 C 12.078125 -17.914062 13.453125 -17.46875 15.078125 -17.46875 C 18.660156 -17.46875 22.445312 -18.390625 26.4375 -20.234375 L 27.546875 -17.46875 L 16.46875 -14.40625 C 19.164062 -14.40625 21.457031 -13.796875 23.34375 -12.578125 C 25.226562 -11.359375 26.171875 -9.84375 26.171875 -8.03125 C 26.171875 -5.738281 24.929688 -3.78125 22.453125 -2.15625 C 19.972656 -0.53125 16.960938 0.28125 13.421875 0.28125 C 10.535156 0.28125 8.101562 -0.328125 6.125 -1.546875 C 4.144531 -2.765625 3.15625 -4.28125 3.15625 -6.09375 C 3.15625 -6.726562 3.367188 -7.253906 3.796875 -7.671875 C 4.222656 -8.097656 4.75 -8.3125 5.375 -8.3125 C 6 -8.3125 6.523438 -8.097656 6.953125 -7.671875 C 7.378906 -7.253906 7.59375 -6.726562 7.59375 -6.09375 C 7.59375 -5.6875 7.441406 -5.328125 7.140625 -5.015625 C 6.847656 -4.703125 6.445312 -4.507812 5.9375 -4.4375 C 6.5625 -3.65625 7.445312 -3.039062 8.59375 -2.59375 C 9.738281 -2.15625 10.976562 -1.9375 12.3125 -1.9375 C 14.34375 -1.9375 16.050781 -2.609375 17.4375 -3.953125 C 18.820312 -5.304688 19.515625 -6.945312 19.515625 -8.875 C 19.515625 -10.09375 19.023438 -11.132812 18.046875 -12 C 17.066406 -12.875 15.894531 -13.3125 14.53125 -13.3125 L 3.4375 -9.984375 L 2.609375 -12.75 L 14.796875 -16.078125 C 11.359375 -16.078125 8.421875 -16.664062 5.984375 -17.84375 C 3.546875 -19.03125 2.328125 -20.472656 2.328125 -22.171875 Z M 2.328125 -22.171875 "/></g></g></g><g fill="rgb(99.609375%, 53.729248%, 12.159729%)" fill-opacity="1"><g transform="translate(98.917618, 48.129633)"><g><path d="M 5.09375 -27.71875 L 15.078125 -27.71875 C 15.628906 -27.71875 15.90625 -27.441406 15.90625 -26.890625 C 15.90625 -26.335938 15.628906 -26.0625 15.078125 -26.0625 L 13.421875 -26.0625 L 13.421875 -2.765625 C 13.421875 -1.660156 13.675781 -0.6875 14.1875 0.15625 C 14.707031 1.007812 15.375 1.507812 16.1875 1.65625 C 16 1.476562 15.90625 1.222656 15.90625 0.890625 C 15.90625 0.441406 16.117188 0.046875 16.546875 -0.296875 C 16.972656 -0.648438 17.5 -0.828125 18.125 -0.828125 C 18.71875 -0.828125 19.234375 -0.585938 19.671875 -0.109375 C 20.117188 0.367188 20.34375 0.957031 20.34375 1.65625 C 20.34375 2.25 20.101562 2.765625 19.625 3.203125 C 19.144531 3.648438 18.550781 3.875 17.84375 3.875 C 16.925781 3.875 15.945312 3.539062 14.90625 2.875 C 12.46875 1.320312 10.863281 0.546875 10.09375 0.546875 C 8.09375 0.546875 6.425781 1.007812 5.09375 1.9375 L 3.984375 0.28125 C 4.804688 -0.0195312 5.472656 -0.5 5.984375 -1.15625 C 6.503906 -1.820312 6.765625 -2.546875 6.765625 -3.328125 L 6.765625 -26.0625 L 5.09375 -26.0625 C 4.539062 -26.0625 4.265625 -26.335938 4.265625 -26.890625 C 4.265625 -27.441406 4.539062 -27.71875 5.09375 -27.71875 Z M 5.09375 -27.71875 "/></g></g></g><g fill="rgb(99.609375%, 53.729248%, 12.159729%)" fill-opacity="1"><g transform="translate(117.26454, 48.129633)"><g><path d="M 10.25 -23.28125 C 10.25 -22.394531 10.546875 -21.617188 11.140625 -20.953125 C 11.734375 -20.285156 12.457031 -19.953125 13.3125 -19.953125 C 14.707031 -19.953125 15.90625 -20.097656 16.90625 -20.390625 C 17.90625 -20.691406 18.550781 -21.101562 18.84375 -21.625 C 18.21875 -21.625 17.691406 -21.75 17.265625 -22 C 16.835938 -22.257812 16.625 -22.59375 16.625 -23 C 16.625 -23.40625 16.804688 -23.738281 17.171875 -24 C 17.546875 -24.257812 18.015625 -24.390625 18.578125 -24.390625 C 19.203125 -24.460938 19.753906 -24.1875 20.234375 -23.5625 C 19.941406 -24.300781 19.378906 -24.898438 18.546875 -25.359375 C 17.710938 -25.828125 16.703125 -26.0625 15.515625 -26.0625 C 14.046875 -26.0625 12.800781 -25.789062 11.78125 -25.25 C 10.757812 -24.71875 10.25 -24.0625 10.25 -23.28125 Z M 2.765625 -22.734375 C 2.765625 -24.429688 3.890625 -25.867188 6.140625 -27.046875 C 8.398438 -28.234375 11.15625 -28.828125 14.40625 -28.828125 C 18.101562 -28.828125 21.242188 -28.066406 23.828125 -26.546875 C 26.421875 -25.035156 27.71875 -23.207031 27.71875 -21.0625 C 27.71875 -18.476562 26.367188 -16.257812 23.671875 -14.40625 C 20.972656 -12.5625 17.703125 -11.640625 13.859375 -11.640625 C 15.003906 -11.046875 15.925781 -9.769531 16.625 -7.8125 C 17.332031 -5.851562 18.09375 -4.289062 18.90625 -3.125 C 19.71875 -1.96875 20.4375 -1.390625 21.0625 -1.390625 C 21.726562 -1.390625 22.359375 -1.679688 22.953125 -2.265625 C 23.546875 -2.859375 24.023438 -3.675781 24.390625 -4.71875 C 24.503906 -5.007812 24.726562 -5.15625 25.0625 -5.15625 C 25.351562 -5.15625 25.5 -5.007812 25.5 -4.71875 L 25.5 0 L 18.84375 0 C 16.851562 0 15 -0.679688 13.28125 -2.046875 C 11.5625 -3.421875 10.273438 -5.234375 9.421875 -7.484375 C 8.828125 -9.109375 8.148438 -10.390625 7.390625 -11.328125 C 6.640625 -12.273438 5.929688 -12.75 5.265625 -12.75 C 4.265625 -12.75 3.710938 -12.378906 3.609375 -11.640625 C 4.160156 -11.640625 4.617188 -11.507812 4.984375 -11.25 C 5.359375 -10.988281 5.546875 -10.65625 5.546875 -10.25 C 5.546875 -9.769531 5.382812 -9.375 5.0625 -9.0625 C 4.75 -8.75 4.351562 -8.59375 3.875 -8.59375 C 3.25 -8.59375 2.722656 -8.804688 2.296875 -9.234375 C 1.867188 -9.660156 1.65625 -10.1875 1.65625 -10.8125 C 1.65625 -11.914062 2.023438 -12.835938 2.765625 -13.578125 C 3.503906 -14.316406 4.429688 -14.6875 5.546875 -14.6875 C 6.171875 -14.6875 7.367188 -14.445312 9.140625 -13.96875 C 10.109375 -13.707031 10.847656 -13.578125 11.359375 -13.578125 C 13.910156 -13.578125 16.070312 -14.351562 17.84375 -15.90625 C 19.625 -17.457031 20.515625 -19.363281 20.515625 -21.625 C 20.066406 -20.40625 19.078125 -19.40625 17.546875 -18.625 C 16.015625 -17.851562 14.234375 -17.46875 12.203125 -17.46875 C 9.609375 -17.46875 7.382812 -17.984375 5.53125 -19.015625 C 3.6875 -20.046875 2.765625 -21.285156 2.765625 -22.734375 Z M 29.65625 -27.71875 L 39.640625 -27.71875 C 40.191406 -27.71875 40.46875 -27.441406 40.46875 -26.890625 C 40.46875 -26.335938 40.191406 -26.0625 39.640625 -26.0625 L 37.96875 -26.0625 L 37.96875 -2.765625 C 37.96875 -1.660156 38.226562 -0.6875 38.75 0.15625 C 39.269531 1.007812 39.9375 1.507812 40.75 1.65625 C 40.5625 1.476562 40.46875 1.222656 40.46875 0.890625 C 40.46875 0.441406 40.679688 0.046875 41.109375 -0.296875 C 41.535156 -0.648438 42.0625 -0.828125 42.6875 -0.828125 C 43.28125 -0.828125 43.796875 -0.585938 44.234375 -0.109375 C 44.679688 0.367188 44.90625 0.957031 44.90625 1.65625 C 44.90625 2.25 44.664062 2.765625 44.1875 3.203125 C 43.707031 3.648438 43.113281 3.875 42.40625 3.875 C 41.488281 3.875 40.507812 3.539062 39.46875 2.875 C 37.03125 1.320312 35.425781 0.546875 34.65625 0.546875 C 32.65625 0.546875 30.988281 1.007812 29.65625 1.9375 L 28.546875 0.28125 C 29.359375 -0.0195312 30.023438 -0.5 30.546875 -1.15625 C 31.066406 -1.820312 31.328125 -2.546875 31.328125 -3.328125 L 31.328125 -26.0625 L 29.65625 -26.0625 C 29.101562 -26.0625 28.828125 -26.335938 28.828125 -26.890625 C 28.828125 -27.441406 29.101562 -27.71875 29.65625 -27.71875 Z M 29.65625 -27.71875 "/></g></g></g><g fill="rgb(0%, 55.288696%, 8.628845%)" fill-opacity="1"><g transform="translate(165.420086, 48.075543)"><g><path d="M 0.828125 -24.390625 C 0.828125 -25.304688 1.148438 -26.085938 1.796875 -26.734375 C 2.441406 -27.378906 3.226562 -27.703125 4.15625 -27.703125 L 13.859375 -27.703125 L 13.859375 -13.296875 C 13.859375 -12.117188 14.316406 -11.085938 15.234375 -10.203125 C 16.160156 -9.316406 17.269531 -8.875 18.5625 -8.875 C 20.75 -8.875 22.691406 -10.070312 24.390625 -12.46875 L 24.390625 -26.046875 L 22.71875 -26.046875 C 22.164062 -26.046875 21.890625 -26.320312 21.890625 -26.875 C 21.890625 -27.425781 22.164062 -27.703125 22.71875 -27.703125 L 32.703125 -27.703125 C 33.253906 -27.703125 33.53125 -27.425781 33.53125 -26.875 C 33.53125 -26.320312 33.253906 -26.046875 32.703125 -26.046875 L 31.03125 -26.046875 L 31.03125 -2.765625 C 31.03125 -1.660156 31.289062 -0.6875 31.8125 0.15625 C 32.332031 1.007812 33 1.507812 33.8125 1.65625 C 33.625 1.476562 33.53125 1.222656 33.53125 0.890625 C 33.53125 0.441406 33.742188 0.046875 34.171875 -0.296875 C 34.597656 -0.648438 35.125 -0.828125 35.75 -0.828125 C 36.34375 -0.828125 36.859375 -0.585938 37.296875 -0.109375 C 37.742188 0.367188 37.96875 0.957031 37.96875 1.65625 C 37.96875 2.25 37.722656 2.765625 37.234375 3.203125 C 36.753906 3.648438 36.164062 3.875 35.46875 3.875 C 34.539062 3.875 33.5625 3.539062 32.53125 2.875 C 30.09375 1.320312 28.484375 0.546875 27.703125 0.546875 C 25.710938 0.546875 24.050781 1.007812 22.71875 1.9375 L 21.609375 0.28125 C 22.421875 -0.0195312 23.085938 -0.5 23.609375 -1.15625 C 24.128906 -1.820312 24.390625 -2.546875 24.390625 -3.328125 L 24.390625 -9.96875 C 22.796875 -7.757812 20.394531 -6.65625 17.1875 -6.65625 C 14.414062 -6.65625 12.054688 -7.429688 10.109375 -8.984375 C 8.171875 -10.535156 7.203125 -12.4375 7.203125 -14.6875 L 7.203125 -24.390625 C 7.203125 -24.828125 6.960938 -25.210938 6.484375 -25.546875 C 6.003906 -25.878906 5.410156 -26.046875 4.703125 -26.046875 C 3.710938 -26.046875 3.160156 -25.863281 3.046875 -25.5 C 3.597656 -25.5 4.054688 -25.367188 4.421875 -25.109375 C 4.796875 -24.847656 4.984375 -24.515625 4.984375 -24.109375 C 4.984375 -23.554688 4.832031 -23.09375 4.53125 -22.71875 C 4.238281 -22.351562 3.835938 -22.171875 3.328125 -22.171875 C 2.617188 -22.171875 2.023438 -22.375 1.546875 -22.78125 C 1.066406 -23.1875 0.828125 -23.722656 0.828125 -24.390625 Z M 0.828125 -24.390625 "/></g></g></g><g fill="rgb(0%, 55.288696%, 8.628845%)" fill-opacity="1"><g transform="translate(201.057349, 48.075543)"><g><path d="M 5.9375 -27.703125 L 15.90625 -27.703125 C 16.457031 -27.703125 16.734375 -27.425781 16.734375 -26.875 C 16.734375 -26.320312 16.457031 -26.046875 15.90625 -26.046875 L 14.25 -26.046875 L 14.25 -2.765625 C 14.25 -1.660156 14.503906 -0.6875 15.015625 0.15625 C 15.535156 1.007812 16.203125 1.507812 17.015625 1.65625 C 16.828125 1.476562 16.734375 1.222656 16.734375 0.890625 C 16.734375 0.441406 16.945312 0.046875 17.375 -0.296875 C 17.800781 -0.648438 18.328125 -0.828125 18.953125 -0.828125 C 19.546875 -0.828125 20.0625 -0.585938 20.5 -0.109375 C 20.945312 0.367188 21.171875 0.957031 21.171875 1.65625 C 21.171875 2.25 20.929688 2.765625 20.453125 3.203125 C 19.972656 3.648438 19.378906 3.875 18.671875 3.875 C 17.753906 3.875 16.773438 3.539062 15.734375 2.875 C 13.296875 1.320312 11.691406 0.546875 10.921875 0.546875 C 8.921875 0.546875 7.257812 1.007812 5.9375 1.9375 L 4.828125 0.28125 C 5.640625 -0.0195312 6.300781 -0.5 6.8125 -1.15625 C 7.332031 -1.820312 7.59375 -2.546875 7.59375 -3.328125 L 7.59375 -26.046875 L 5.9375 -26.046875 C 5.375 -26.046875 5.09375 -26.320312 5.09375 -26.875 C 5.09375 -27.425781 5.375 -27.703125 5.9375 -27.703125 Z M -10.96875 -36.6875 C -10.96875 -37.832031 -10.488281 -38.8125 -9.53125 -39.625 C -8.570312 -40.4375 -7.390625 -40.84375 -5.984375 -40.84375 C -4.578125 -40.84375 -2.988281 -40.398438 -1.21875 -39.515625 C 0.550781 -38.628906 2.472656 -37.316406 4.546875 -35.578125 C 7.722656 -32.992188 10.675781 -31.703125 13.40625 -31.703125 C 14.664062 -31.703125 15.59375 -31.882812 16.1875 -32.25 C 15.738281 -31.070312 15.023438 -30.128906 14.046875 -29.421875 C 13.066406 -28.722656 11.929688 -28.375 10.640625 -28.375 C 8.566406 -28.375 6.539062 -28.875 4.5625 -29.875 C 2.59375 -30.875 0.832031 -32.3125 -0.71875 -34.1875 C -3.195312 -37.144531 -5.320312 -38.625 -7.09375 -38.625 C -7.789062 -38.625 -8.367188 -38.363281 -8.828125 -37.84375 C -9.296875 -37.332031 -9.457031 -36.765625 -9.3125 -36.140625 C -9.050781 -36.691406 -8.585938 -36.96875 -7.921875 -36.96875 C -6.816406 -36.96875 -6.265625 -36.503906 -6.265625 -35.578125 C -6.265625 -35.140625 -6.445312 -34.753906 -6.8125 -34.421875 C -7.1875 -34.085938 -7.648438 -33.921875 -8.203125 -33.921875 C -8.972656 -33.921875 -9.625 -34.1875 -10.15625 -34.71875 C -10.695312 -35.257812 -10.96875 -35.914062 -10.96875 -36.6875 Z M -10.96875 -36.6875 "/></g></g></g><g fill="rgb(0%, 55.288696%, 8.628845%)" fill-opacity="1"><g transform="translate(219.735043, 48.075543)"><g><path d="M 1.78125 -9.96875 C 1.78125 -12.113281 2.679688 -13.941406 4.484375 -15.453125 C 6.296875 -16.972656 8.53125 -17.734375 11.1875 -17.734375 C 12.707031 -17.734375 14.007812 -18.1875 15.09375 -19.09375 C 16.1875 -20 16.734375 -21.117188 16.734375 -22.453125 C 16.734375 -23.441406 16.269531 -24.285156 15.34375 -24.984375 C 14.425781 -25.691406 13.320312 -26.046875 12.03125 -26.046875 C 10.582031 -26.046875 9.382812 -25.84375 8.4375 -25.4375 C 7.5 -25.03125 7.03125 -24.492188 7.03125 -23.828125 C 7.03125 -23.347656 6.8125 -23.109375 6.375 -23.109375 C 5.894531 -23.109375 5.65625 -23.347656 5.65625 -23.828125 L 5.65625 -26.875 C 7.207031 -27.425781 9.789062 -27.703125 13.40625 -27.703125 C 16.507812 -27.703125 19.132812 -27.140625 21.28125 -26.015625 C 23.425781 -24.890625 24.5 -23.515625 24.5 -21.890625 C 24.5 -20.453125 23.847656 -19.210938 22.546875 -18.171875 C 21.253906 -17.140625 19.6875 -16.625 17.84375 -16.625 C 15.363281 -16.625 13.265625 -15.945312 11.546875 -14.59375 C 9.835938 -13.25 8.984375 -11.617188 8.984375 -9.703125 C 8.984375 -7.554688 9.59375 -5.722656 10.8125 -4.203125 C 12.03125 -2.691406 13.546875 -1.9375 15.359375 -1.9375 C 16.753906 -1.9375 18.191406 -2.5625 19.671875 -3.8125 C 21.148438 -5.070312 22.390625 -6.757812 23.390625 -8.875 L 27.828125 -4.984375 C 25.015625 -1.660156 20.765625 0 15.078125 0 C 11.421875 0 8.289062 -0.976562 5.6875 -2.9375 C 3.082031 -4.894531 1.78125 -7.238281 1.78125 -9.96875 Z M 1.78125 -9.96875 "/></g></g></g><g fill="rgb(0%, 55.288696%, 8.628845%)" fill-opacity="1"><g transform="translate(245.728633, 48.075543)"><g><path d="M -17.90625 -35.1875 C -17.90625 -36.925781 -17.007812 -38.421875 -15.21875 -39.671875 C -13.425781 -40.929688 -11.269531 -41.5625 -8.75 -41.5625 L -0.71875 -41.5625 L -0.71875 -37.125 C -0.71875 -36.800781 -0.882812 -36.640625 -1.21875 -36.640625 C -1.550781 -36.640625 -1.769531 -36.941406 -1.875 -37.546875 C -1.988281 -38.160156 -2.460938 -38.753906 -3.296875 -39.328125 C -4.128906 -39.898438 -5.117188 -40.1875 -6.265625 -40.1875 C -7.597656 -40.1875 -8.710938 -39.617188 -9.609375 -38.484375 C -10.515625 -37.359375 -10.96875 -35.984375 -10.96875 -34.359375 C -10.96875 -31.472656 -9.769531 -29.347656 -7.375 -27.984375 L -7.921875 -26.875 C -10.660156 -26.875 -13.007812 -27.6875 -14.96875 -29.3125 C -16.925781 -30.9375 -17.90625 -32.894531 -17.90625 -35.1875 Z M -17.90625 -35.1875 "/></g></g><g transform="translate(245.728633, 48.075543)"><g><path d="M 2.21875 -13.859375 C 2.21875 -17.703125 3.820312 -20.96875 7.03125 -23.65625 C 10.25 -26.351562 14.1875 -27.703125 18.84375 -27.703125 L 22.453125 -27.703125 L 22.453125 -24.390625 C 22.453125 -23.984375 22.25 -23.78125 21.84375 -23.78125 C 21.425781 -23.78125 21.171875 -24 21.078125 -24.4375 C 20.992188 -24.882812 20.664062 -25.265625 20.09375 -25.578125 C 19.519531 -25.890625 18.828125 -26.046875 18.015625 -26.046875 C 15.722656 -26.046875 13.765625 -24.863281 12.140625 -22.5 C 10.515625 -20.132812 9.703125 -17.253906 9.703125 -13.859375 C 9.703125 -10.566406 10.476562 -7.753906 12.03125 -5.421875 C 13.582031 -3.097656 15.484375 -1.9375 17.734375 -1.9375 C 19.648438 -1.9375 20.851562 -2.582031 21.34375 -3.875 C 21.113281 -3.769531 20.910156 -3.71875 20.734375 -3.71875 C 20.328125 -3.71875 19.957031 -3.890625 19.625 -4.234375 C 19.289062 -4.585938 19.125 -5.023438 19.125 -5.546875 C 19.125 -5.984375 19.304688 -6.367188 19.671875 -6.703125 C 20.046875 -7.035156 20.507812 -7.203125 21.0625 -7.203125 C 21.613281 -7.203125 22.070312 -6.941406 22.4375 -6.421875 C 22.8125 -5.910156 23 -5.25 23 -4.4375 C 23 -3.21875 22.378906 -2.171875 21.140625 -1.296875 C 19.898438 -0.429688 18.394531 0 16.625 0 C 12.632812 0 9.234375 -1.347656 6.421875 -4.046875 C 3.617188 -6.742188 2.21875 -10.015625 2.21875 -13.859375 Z M 26.875 -27.703125 L 36.859375 -27.703125 C 37.410156 -27.703125 37.6875 -27.425781 37.6875 -26.875 C 37.6875 -26.320312 37.410156 -26.046875 36.859375 -26.046875 L 35.1875 -26.046875 L 35.1875 -2.765625 C 35.1875 -1.660156 35.445312 -0.6875 35.96875 0.15625 C 36.488281 1.007812 37.15625 1.507812 37.96875 1.65625 C 37.78125 1.476562 37.6875 1.222656 37.6875 0.890625 C 37.6875 0.441406 37.898438 0.046875 38.328125 -0.296875 C 38.753906 -0.648438 39.28125 -0.828125 39.90625 -0.828125 C 40.5 -0.828125 41.015625 -0.585938 41.453125 -0.109375 C 41.898438 0.367188 42.125 0.957031 42.125 1.65625 C 42.125 2.25 41.878906 2.765625 41.390625 3.203125 C 40.910156 3.648438 40.320312 3.875 39.625 3.875 C 38.695312 3.875 37.71875 3.539062 36.6875 2.875 C 34.25 1.320312 32.644531 0.546875 31.875 0.546875 C 29.875 0.546875 28.207031 1.007812 26.875 1.9375 L 25.765625 0.28125 C 26.578125 -0.0195312 27.242188 -0.5 27.765625 -1.15625 C 28.285156 -1.820312 28.546875 -2.546875 28.546875 -3.328125 L 28.546875 -13.859375 L 19.125 -13.859375 C 18.863281 -13.859375 18.660156 -13.742188 18.515625 -13.515625 C 18.367188 -13.296875 18.296875 -13.019531 18.296875 -12.6875 C 18.296875 -12.351562 18.382812 -12.003906 18.5625 -11.640625 C 18.75 -11.335938 18.710938 -11.054688 18.453125 -10.796875 C 18.191406 -10.546875 17.953125 -10.550781 17.734375 -10.8125 L 14.40625 -16.90625 C 14.21875 -17.125 14.21875 -17.363281 14.40625 -17.625 C 14.59375 -17.882812 14.816406 -18.015625 15.078125 -18.015625 C 15.265625 -18.015625 15.410156 -17.921875 15.515625 -17.734375 C 16.140625 -16.628906 16.972656 -16.078125 18.015625 -16.078125 L 28.546875 -16.078125 L 28.546875 -26.046875 L 26.875 -26.046875 C 26.320312 -26.046875 26.046875 -26.320312 26.046875 -26.875 C 26.046875 -27.425781 26.320312 -27.703125 26.875 -27.703125 Z M 26.875 -27.703125 "/></g></g></g></svg>