<svg xmlns="http://www.w3.org/2000/svg" xmlns:xlink="http://www.w3.org/1999/xlink" width="200" zoomAndPan="magnify" viewBox="0 0 150 45" height="60" preserveAspectRatio="xMidYMid meet" xmlns:v="https://vecta.io/nano"><g fill="#747474"><path d="M14.106 22.327V11.889h4.312v10.438zm0 6.563v-8.078h4.312v8.078zm-8.687-2.937c-.781 0-1.496-.07-2.141-.219-.637-.156-1.184-.363-1.641-.625l-.328-3.484a9.8 9.8 0 0 0 1.391.5c.488.125 1.035.188 1.641.188.875 0 1.523-.254 1.953-.766.438-.508.656-1.273.656-2.297v-1.203c0-1.008-.215-1.758-.641-2.25-.418-.488-1.062-.734-1.937-.734a5.48 5.48 0 0 0-1.5.203 6.33 6.33 0 0 0-1.328.516l.313-3.547a8.05 8.05 0 0 1 1.641-.562 8.84 8.84 0 0 1 2-.219c1.25 0 2.316.23 3.203.688.883.449 1.555 1.148 2.016 2.094.469.949.703 2.168.703 3.656v1.609c0 1.492-.234 2.715-.703 3.672-.469.949-1.152 1.652-2.047 2.109-.898.449-1.98.672-3.25.672zm0 0"/><use xlink:href="#B"/><path d="M25.48 23.077l-4.187-.703v-5.734c0-1.707.426-3 1.281-3.875s2.109-1.312 3.766-1.312c.813 0 1.523.102 2.141.297s1.18.496 1.703.891 1.031.883 1.531 1.453l3.531 4-3.25 2.172-3.578-4.172a7.03 7.03 0 0 0-.687-.703c-.199-.176-.391-.301-.578-.375a1.57 1.57 0 0 0-.578-.109c-.355 0-.625.125-.812.375s-.281.625-.281 1.125zm7.703 6.188c-2.031 0-3.578-.406-4.641-1.219s-1.594-2.02-1.594-3.625v-.141c0-.707.109-1.336.328-1.891.219-.562.535-1.102.953-1.625l1.484-1.719 1.766-1.781 2.938 2.125-1.625 1.766c-.48.5-.855.953-1.125 1.359-.262.406-.391.891-.391 1.453v.125c0 .574.156 1.008.469 1.297.32.281.801.422 1.438.422.613 0 1.078-.141 1.391-.422.32-.289.484-.723.484-1.297v-.125a2.42 2.42 0 0 0-.437-1.406c-.293-.426-.664-.891-1.109-1.391l-1.437-1.625 3-2.156 1.594 1.719 1.406 1.672c.406.531.723 1.078.953 1.641.238.555.359 1.172.359 1.859v.141c0 1.605-.531 2.813-1.594 3.625-1.055.813-2.59 1.219-4.609 1.219zm2.5-9.359l-4.953-.219v-2.594l6.906-.453h4.344l.281 3.281zm0 0"/><path d="M54.363 19.42l-2.812-2.031 4.578-5.5h5v.313zm-9.469 3.656l-4.187-.703v-5.734c0-1.707.426-3 1.281-3.875s2.109-1.312 3.766-1.312c.813 0 1.523.102 2.141.297s1.18.496 1.703.891 1.031.883 1.531 1.453l3.531 4-3.25 2.172-3.578-4.172a7.03 7.03 0 0 0-.687-.703c-.199-.176-.391-.301-.578-.375a1.57 1.57 0 0 0-.578-.109c-.355 0-.625.125-.812.375s-.281.625-.281 1.125zm7.703 6.188c-2.031 0-3.578-.406-4.641-1.219s-1.594-2.02-1.594-3.625v-.141c0-.707.109-1.336.328-1.891.219-.562.535-1.102.953-1.625l1.484-1.719 1.766-1.781 2.938 2.125-1.625 1.766c-.48.5-.855.953-1.125 1.359-.262.406-.391.891-.391 1.453v.125c0 .574.156 1.008.469 1.297.32.281.801.422 1.438.422.613 0 1.078-.141 1.391-.422.32-.289.484-.723.484-1.297v-.125a2.42 2.42 0 0 0-.437-1.406c-.293-.426-.664-.891-1.109-1.391l-1.437-1.625 3-2.156 1.594 1.719 1.406 1.672c.406.531.723 1.078.953 1.641.238.555.359 1.172.359 1.859v.141c0 1.605-.531 2.813-1.594 3.625-1.055.813-2.59 1.219-4.609 1.219zm0 0"/><use xlink:href="#B" x="36.96"/></g><path d="M79.693 19.264V6.201l4.297-.516v13.578zm-4.234 10c-2.668 0-4.625-.445-5.875-1.344-1.25-.906-1.875-2.16-1.875-3.766v-.203c0-1.133.297-2.023.891-2.672s1.516-1.039 2.766-1.187v-.094c-1.273-.133-2.203-.516-2.797-1.141-.586-.625-.875-1.523-.875-2.703v-.156c0-1.562.523-2.707 1.578-3.437 1.051-.738 2.531-1.109 4.438-1.109.695 0 1.332.055 1.906.156a8.6 8.6 0 0 1 1.484.359l.328 3.375c-.344-.102-.734-.191-1.172-.266s-.93-.109-1.469-.109c-.867 0-1.523.137-1.969.406s-.672.688-.672 1.25v.078c0 .5.164.875.5 1.125.344.25.91.398 1.703.438l2.438.094v3.359l-2.406.094c-.793.031-1.359.195-1.703.484s-.516.719-.516 1.281v.125c0 .68.25 1.184.75 1.516.508.324 1.359.484 2.547.484 1.414 0 2.473-.312 3.172-.937.707-.633 1.063-1.582 1.063-2.844v-3.109h4.313v3.172c0 2.438-.715 4.262-2.141 5.469s-3.562 1.813-6.406 1.813zm12.545-5.484c-.344-.781-.652-1.609-.922-2.484-.273-.883-.496-1.82-.672-2.812a25.81 25.81 0 0 1-.328-3.125l1.859-1.141h3.688v9.563zm2.516-6.047v-3.516h7.125l.313 3.516zm11.563 11.438c-1.168 0-2.219-.086-3.156-.25-.937-.156-1.746-.344-2.422-.562l-.359-3.578a19.21 19.21 0 0 0 2.438.547c.852.125 1.785.188 2.797.188 1.039 0 1.82-.148 2.344-.453.531-.301.797-.781.797-1.437v-.109c0-.562-.187-1.004-.562-1.328-.367-.32-1.023-.531-1.969-.625l2.219-1c1.508 0 2.68.328 3.516.984.844.656 1.266 1.605 1.266 2.844v.188c0 1.031-.277 1.891-.828 2.578-.555.68-1.344 1.184-2.375 1.516s-2.266.5-3.703.5zm-.859-9.453c-1.023-.02-1.906-.172-2.656-.453s-1.328-.691-1.734-1.234-.609-1.223-.609-2.047v-.141c0-1.445.551-2.539 1.656-3.281 1.113-.738 2.738-1.109 4.875-1.109.969 0 1.852.078 2.656.234s1.469.344 2 .563l.359 3.406c-.574-.176-1.211-.32-1.906-.437a13.55 13.55 0 0 0-2.172-.172c-1.086 0-1.859.152-2.328.453-.461.305-.687.73-.687 1.281v.078c0 .492.203.891.609 1.203.414.305 1.133.492 2.156.563zm-5.844 3.594v-3.547l6.375-.875 2.484 2.797zm5.844 10.234l-3.297-5.312 2.719-.016c1.008.523 1.828 1.047 2.453 1.578.633.531 1.16 1.039 1.578 1.531l1.859 2.109v.109zm-.406-14.891l9.156-1.781v3.516l-7.875 1.063zm11.376 3.672V11.889h4.313v10.438zm0 6.563v-8.078h4.313v8.078zm1.469-18.031l-4.859-2.187-4.859-2.234 2.219-3.828 4.516 2.859 4.516 2.859zm12.996 18.405c-2.605 0-4.527-.461-5.766-1.391-1.242-.937-1.859-2.285-1.859-4.047v-.281c0-.926.164-1.734.5-2.422.344-.687.91-1.27 1.703-1.75s1.852-.848 3.188-1.109l1.641-.344c.645-.133 1.098-.32 1.359-.562a1.18 1.18 0 0 0 .391-.906v-.062c0-.488-.211-.832-.625-1.031-.418-.207-1.117-.312-2.094-.312a11.68 11.68 0 0 0-2.344.25c-.793.156-1.555.355-2.281.594l.453-3.547c.551-.238 1.254-.445 2.109-.625a13.6 13.6 0 0 1 2.719-.266c2.082 0 3.687.402 4.812 1.203 1.133.793 1.703 2.027 1.703 3.703v.172c0 .805-.152 1.508-.453 2.109-.293.594-.746 1.094-1.359 1.5-.605.398-1.383.695-2.328.891l-2.234.453c-.586.125-1.055.289-1.406.484-.355.188-.609.422-.766.703-.156.273-.234.594-.234.969v.078c0 .656.281 1.141.844 1.453.57.305 1.473.453 2.703.453.594 0 1.207-.047 1.844-.141a14.52 14.52 0 0 0 1.875-.422c.605-.18 1.148-.375 1.641-.594l-.375 3.828c-.699.293-1.512.527-2.437.703a15.51 15.51 0 0 1-2.922.266zm1.402-18.406l-4.25-2.297-4.25-2.312 2.422-3.641 3.875 2.875 3.875 2.891zm12.009 8.859c-1.012-.02-1.891-.172-2.641-.453s-1.328-.691-1.734-1.234-.609-1.223-.609-2.047v-.141c0-1.445.551-2.539 1.656-3.281s2.727-1.109 4.875-1.109c.957 0 1.836.078 2.641.234s1.469.344 2 .563l.375 3.406c-.594-.176-1.242-.32-1.937-.437a13.16 13.16 0 0 0-2.141-.172c-1.086 0-1.859.152-2.328.453a1.44 1.44 0 0 0-.703 1.281v.078c0 .492.207.891.625 1.203.414.305 1.129.492 2.141.563zm.859 9.547c-1.18 0-2.23-.078-3.156-.234-.93-.145-1.73-.328-2.406-.547l-.359-3.594a19.55 19.55 0 0 0 2.422.531c.852.137 1.785.203 2.797.203 1.039 0 1.82-.148 2.344-.453.531-.312.797-.797.797-1.453v-.109c0-.539-.184-.977-.547-1.312s-1.023-.547-1.969-.641l2.203-1c1.5 0 2.672.328 3.516.984s1.266 1.605 1.266 2.844v.188c0 1.563-.609 2.719-1.828 3.469s-2.914 1.125-5.078 1.125zm-6.703-5.891v-3.562l6.391-.875 2.469 2.797zm5.453-4.656l9.156-1.781v3.5l-7.891 1.063zm0 0" fill="#404040"/><defs ><path id="B" d="M15.016 38.983c-1.5 0-2.824-.258-3.969-.766s-2.117-1.293-2.906-2.344c-.781-1.043-1.398-2.375-1.844-4h4c.426 1.414 1.02 2.441 1.781 3.078.77.645 1.711.969 2.828.969.719 0 1.234-.137 1.547-.406.32-.273.484-.637.484-1.094v-.078c0-.449-.148-.809-.437-1.078s-.781-.406-1.469-.406a6.17 6.17 0 0 0-1.391.156c-.449.113-.906.258-1.375.438l.328-3.031c.469-.187.953-.336 1.453-.437a9.53 9.53 0 0 1 1.719-.141c1.656 0 2.883.398 3.688 1.203.801.813 1.203 1.883 1.203 3.219v.172c0 1.395-.453 2.5-1.359 3.313-.906.82-2.336 1.234-4.281 1.234zm0 0"/></defs></svg>