<svg xmlns="http://www.w3.org/2000/svg" width="37.5" viewBox="0 0 37.5 37.5" height="37.5" version="1.0"><defs><clipPath id="a"><path d="M 4.289062 0 L 33.539062 0 L 33.539062 37.007812 L 4.289062 37.007812 Z M 4.289062 0"/></clipPath><clipPath id="b"><path d="M 25.117188 0.0273438 L 33.539062 0.0273438 L 33.539062 8.320312 L 25.117188 8.320312 Z M 25.117188 0.0273438"/></clipPath></defs><path fill="#EC1D27" d="M 19.519531 22.601562 C 20.574219 22.609375 21.265625 22.042969 21.265625 20.835938 C 21.265625 19.75 20.644531 19.234375 19.640625 19.234375 C 19.394531 19.234375 19.21875 19.253906 19.121094 19.277344 L 19.121094 22.582031 C 19.21875 22.601562 19.386719 22.601562 19.519531 22.601562"/><g clip-path="url(#a)"><path fill="#EC1D27" d="M 26.4375 19.328125 L 24.476562 19.328125 L 24.476562 20.484375 L 26.308594 20.484375 L 26.308594 21.414062 L 24.476562 21.414062 L 24.476562 23.441406 L 23.324219 23.441406 L 23.324219 18.394531 L 26.4375 18.394531 L 26.4375 19.328125 M 22.484375 20.796875 C 22.484375 21.765625 22.128906 22.429688 21.644531 22.84375 C 21.105469 23.285156 20.277344 23.496094 19.277344 23.496094 C 18.679688 23.496094 18.25 23.457031 17.96875 23.417969 L 17.96875 18.46875 C 18.390625 18.394531 18.945312 18.355469 19.519531 18.355469 C 20.5 18.355469 21.136719 18.511719 21.621094 18.878906 C 21.6875 18.929688 21.75 18.980469 21.808594 19.039062 C 22.226562 19.429688 22.484375 20.011719 22.484375 20.796875 M 16.695312 21.128906 C 16.300781 21.488281 15.710938 21.660156 15.03125 21.660156 C 14.878906 21.660156 14.742188 21.652344 14.636719 21.628906 L 14.636719 23.441406 L 13.492188 23.441406 L 13.492188 18.460938 C 13.847656 18.402344 14.347656 18.355469 15.050781 18.355469 C 15.765625 18.355469 16.28125 18.492188 16.621094 18.769531 C 16.945312 19.015625 17.160156 19.433594 17.160156 19.929688 C 17.160156 20.429688 17 20.851562 16.695312 21.128906 M 12 23.523438 L 11.992188 23.523438 C 11.605469 23.523438 11.324219 23.234375 11.324219 22.835938 C 11.324219 22.421875 11.605469 22.140625 12.007812 22.140625 C 12.402344 22.140625 12.675781 22.417969 12.683594 22.835938 C 12.683594 23.234375 12.410156 23.523438 12 23.523438 M 27.234375 8.292969 C 26.101562 8.292969 25.183594 7.382812 25.183594 6.265625 L 25.183594 0.0273438 L 6.339844 0.0273438 C 5.207031 0.0273438 4.289062 0.933594 4.289062 2.054688 L 4.289062 35.445312 C 4.289062 36.5625 5.207031 37.472656 6.339844 37.472656 L 31.488281 37.472656 C 32.621094 37.472656 33.539062 36.5625 33.539062 35.445312 L 33.539062 8.292969 L 27.234375 8.292969"/></g><path fill="#EC1D27" d="M 16.015625 19.964844 C 16.015625 19.503906 15.695312 19.226562 15.113281 19.226562 C 14.878906 19.226562 14.71875 19.238281 14.636719 19.261719 L 14.636719 20.753906 C 14.726562 20.773438 14.84375 20.78125 14.996094 20.78125 C 15.003906 20.78125 15.011719 20.78125 15.023438 20.78125 C 15.636719 20.78125 16.015625 20.476562 16.015625 19.964844"/><g clip-path="url(#b)"><path fill="#EC1D27" d="M 27.234375 8.292969 L 33.539062 8.292969 L 25.183594 0.0273438 L 25.183594 6.265625 C 25.183594 7.382812 26.101562 8.292969 27.234375 8.292969"/><path fill="#F790A4" d="M 33.539062 8.292969 L 27.234375 8.292969 C 26.101562 8.292969 25.183594 7.382812 25.183594 6.265625 L 25.183594 0.0273438 L 33.539062 8.292969"/></g><path fill="#FFF" d="M 12.007812 22.140625 C 11.605469 22.140625 11.328125 22.421875 11.328125 22.835938 C 11.328125 23.234375 11.605469 23.523438 11.992188 23.523438 L 12 23.523438 C 12.410156 23.523438 12.683594 23.234375 12.683594 22.835938 C 12.675781 22.417969 12.402344 22.140625 12.007812 22.140625"/><path fill="#FFF" d="M 15.023438 20.78125 C 15.011719 20.78125 15.003906 20.78125 14.996094 20.78125 C 14.84375 20.78125 14.726562 20.773438 14.636719 20.753906 L 14.636719 19.261719 C 14.71875 19.238281 14.878906 19.226562 15.113281 19.226562 C 15.695312 19.226562 16.015625 19.503906 16.015625 19.96875 C 16.015625 20.476562 15.636719 20.78125 15.023438 20.78125 Z M 16.621094 18.769531 C 16.28125 18.492188 15.765625 18.355469 15.050781 18.355469 C 14.347656 18.355469 13.847656 18.402344 13.492188 18.460938 L 13.492188 23.441406 L 14.636719 23.441406 L 14.636719 21.628906 C 14.742188 21.652344 14.878906 21.660156 15.03125 21.660156 C 15.710938 21.660156 16.300781 21.488281 16.695312 21.128906 C 17 20.851562 17.160156 20.429688 17.160156 19.929688 C 17.160156 19.433594 16.945312 19.015625 16.621094 18.769531"/><path fill="#FFF" d="M 19.640625 19.234375 C 20.644531 19.234375 21.265625 19.75 21.265625 20.835938 C 21.265625 22.042969 20.574219 22.609375 19.519531 22.605469 C 19.386719 22.605469 19.21875 22.605469 19.121094 22.582031 L 19.121094 19.277344 C 19.21875 19.253906 19.394531 19.234375 19.640625 19.234375 Z M 21.621094 18.878906 C 21.136719 18.511719 20.5 18.355469 19.519531 18.355469 C 18.945312 18.355469 18.390625 18.394531 17.96875 18.46875 L 17.96875 23.417969 C 18.25 23.457031 18.679688 23.496094 19.277344 23.496094 C 20.277344 23.496094 21.105469 23.285156 21.644531 22.84375 C 22.128906 22.429688 22.484375 21.765625 22.484375 20.796875 C 22.484375 20.011719 22.226562 19.429688 21.808594 19.039062 C 21.75 18.980469 21.6875 18.929688 21.621094 18.878906"/><path fill="#FFF" d="M 23.324219 18.394531 L 23.324219 23.441406 L 24.476562 23.441406 L 24.476562 21.414062 L 26.308594 21.414062 L 26.308594 20.484375 L 24.476562 20.484375 L 24.476562 19.328125 L 26.4375 19.328125 L 26.4375 18.394531 L 23.324219 18.394531"/></svg>