<svg xmlns="http://www.w3.org/2000/svg" xmlns:xlink="http://www.w3.org/1999/xlink" width="100" zoomAndPan="magnify" viewBox="0 0 75 74.999997" height="100" preserveAspectRatio="xMidYMid meet" version="1.0"><path fill="#0793f6" d="M 41.035156 46.769531 L 47.707031 40.074219 C 53.140625 34.625 53.140625 25.773438 47.707031 20.324219 C 42.273438 14.871094 33.449219 14.871094 28.011719 20.324219 C 28.011719 20.324219 6.09375 42.308594 6.09375 42.308594 C 0.660156 47.761719 0.660156 56.609375 6.09375 62.0625 C 11.527344 67.511719 20.351562 67.511719 25.785156 62.0625 C 27.339844 60.503906 27.339844 57.976562 25.785156 56.417969 C 24.234375 54.863281 21.714844 54.863281 20.160156 56.417969 C 17.832031 58.753906 14.046875 58.753906 11.71875 56.417969 C 9.390625 54.082031 9.390625 50.289062 11.71875 47.953125 C 11.71875 47.953125 33.640625 25.964844 33.640625 25.964844 C 35.96875 23.628906 39.75 23.628906 42.082031 25.964844 C 44.410156 28.300781 44.410156 32.097656 42.082031 34.433594 C 42.082031 34.433594 35.410156 41.125 35.410156 41.125 C 33.855469 42.683594 33.855469 45.210938 35.410156 46.769531 C 36.960938 48.324219 39.480469 48.324219 41.035156 46.769531 Z M 41.035156 46.769531 " fill-opacity="1" fill-rule="evenodd"/><path fill="#077cf6" d="M 32.222656 29.789062 L 27.082031 34.945312 C 21.648438 40.394531 21.648438 49.246094 27.082031 54.695312 C 32.515625 60.148438 41.339844 60.148438 46.773438 54.695312 C 46.773438 54.695312 68.695312 32.710938 68.695312 32.710938 C 74.128906 27.261719 74.128906 18.410156 68.695312 12.957031 C 63.257812 7.507812 54.433594 7.507812 49 12.957031 C 47.449219 14.515625 47.449219 17.042969 49 18.601562 C 50.554688 20.15625 53.074219 20.15625 54.625 18.601562 C 56.957031 16.265625 60.738281 16.265625 63.066406 18.601562 C 65.398438 20.9375 65.398438 24.730469 63.066406 27.066406 C 63.066406 27.066406 41.148438 49.054688 41.148438 49.054688 C 38.820312 51.390625 35.035156 51.390625 32.707031 49.054688 C 30.378906 46.71875 30.378906 42.921875 32.707031 40.585938 C 32.707031 40.585938 37.847656 35.433594 37.847656 35.433594 C 39.398438 33.875 39.398438 31.347656 37.847656 29.789062 C 36.292969 28.230469 33.773438 28.230469 32.222656 29.789062 Z M 32.222656 29.789062 " fill-opacity="1" fill-rule="evenodd"/></svg>